<svg id="Layer_1" data-name="Layer 1" xmlns="http://www.w3.org/2000/svg" viewBox="0 0 318.45 373.65"><defs><style>.cls-1{fill:#fff;fill-rule:evenodd;}</style></defs><title>logo_timbuctoo</title><path class="cls-1" d="M352.94,574c53.92-31.64,92-121,90.66-204.4a248.49,248.49,0,0,0-12.77-75.52S372.54,272.84,301.22,274a279.57,279.57,0,0,0-32.76,2.6l61.8,217.64c19-5.19,36.74-15.45,52.8-20.21-6.49,17.4-21.85,43.67-41.94,58.42ZM338.18,413.53c6.62-8.91,22.42-21.77,36.53-18.13s22.42,22.85,24.11,34A129.39,129.39,0,0,0,338.18,413.53Z" transform="translate(-125.18 -200.35)"/><path class="cls-1" d="M215.53,200.35c-53.75,31.46-91.66,120.48-90.32,203.49A247.55,247.55,0,0,0,137.9,479s58,21.12,129.09,20a268.38,268.38,0,0,0,32.63-2.6l-61.54-216.6c-18.91,5.15-36.61,15.36-52.58,20.12,6.45-17.31,21.77-43.49,41.76-58.16Zm14.67,159.73c-6.58,8.87-22.33,21.64-36.4,18s-22.33-22.72-24-33.84A130,130,0,0,0,230.21,360.08Z" transform="translate(-125.18 -200.35)"/></svg>