<svg xmlns="http://www.w3.org/2000/svg" viewBox="0 0 900 250">
  <g fill="#468DCB">
    <path d="M884.38 142.2V91.77h-57.89v50.43h-15.62V29.87h15.62v48.74h57.89V29.87H900V142.2h-15.62zm-91.84 0h-15.96l-10.35-27.15h-52.8l-10.19 27.15h-15.96l44.99-112.33h15.28l44.99 112.33zm-74.36-39.64h43.46l-21.73-58.53-21.73 58.53zm-50.09 39.64h-15.62V29.87h15.62V142.2zm-99.99 0h-15.62V29.87h29.37c6.11 0 11.8.68 17.06 2.02 5.26 1.35 9.87 3.35 13.84 5.99 3.96 2.64 7.07 5.96 9.34 9.95 2.26 3.99 3.4 8.58 3.4 13.75 0 7.76-2.52 14.51-7.55 20.24-5.04 5.74-12.08 9.9-21.13 12.48l39.9 47.9h-19.18L580.69 97c-.57 0-1.42.03-2.55.08-1.13.06-2.32.08-3.57.08h-6.45v45.04zm41.76-80.28c0-3.48-.76-6.49-2.29-9.02-1.53-2.53-3.59-4.55-6.19-6.07-2.6-1.52-5.6-2.64-9-3.37-3.39-.73-6.96-1.1-10.69-1.1h-13.58V84.7h7.81c4.75 0 9.19-.45 13.33-1.35 4.13-.9 7.73-2.28 10.78-4.13s5.46-4.22 7.22-7.08c1.73-2.89 2.61-6.29 2.61-10.22zm-75.71 80.28h-15.96l-10.36-27.15h-52.8l-10.19 27.15h-15.96l44.99-112.33h15.28l45 112.33zm-74.36-39.64h43.46l-21.73-58.53-21.73 58.53zm-89.13-72.69v99.68h47.2v12.65h-62.82V29.87h15.62zm-66.72-2.02c5.09 0 10.41.48 15.96 1.43 5.54.96 10.19 2.22 13.92 3.8l-2.55 11.98c-3.85-1.35-7.98-2.44-12.39-3.29-4.41-.84-8.77-1.26-13.07-1.26-14.15 0-25.18 3.94-33.1 11.81-7.92 7.87-11.88 19.12-11.88 33.73 0 14.62 3.96 25.86 11.88 33.73 7.92 7.87 18.96 11.81 33.1 11.81 4.3 0 8.66-.42 13.07-1.27s8.55-1.94 12.39-3.29l2.55 11.97c-3.73 1.58-8.38 2.84-13.92 3.8-5.55.95-10.86 1.43-15.96 1.43-9.28 0-17.57-1.46-24.87-4.38-7.3-2.92-13.44-6.97-18.42-12.14-4.98-5.17-8.8-11.3-11.46-18.39-2.66-7.08-3.99-14.84-3.99-23.28s1.33-16.19 3.99-23.27c2.66-7.08 6.48-13.21 11.46-18.39 4.98-5.17 11.12-9.22 18.42-12.14 7.3-2.93 15.59-4.39 24.87-4.39z"/>
    <path fill-rule="evenodd" d="M127.76 0h.48c3.24 3.97 6.47 7.94 9.71 11.91-6.61 4.6-8.09 5.7-11.62 8.45-11.5 8.97-21.32 21.39-25.77 37.27-5.71 20.39 5.83 40.64 16.66 49.29 8.83 7.06 17.17 14.28 29.36 18.1 31.82 9.96 53.22-14.09 64.11-32.38 2.98-5 6.18-10.91 7.79-17.02 4.63 2.26 9.27 4.52 13.9 6.79-.2 2.3-1.38 4.45-2.16 6.31-2.79 6.7-6.07 12.49-9.71 18.22-13.4 21.12-42.38 47.08-80.05 35.84-7.36-2.19-14.09-5.02-20.01-8.69-16.43-10.17-29.95-24.24-36.19-44.53-2.39-7.76-3.78-19.87-1.68-29.29 1.36-6.1 3-11.64 5.27-16.79 6.48-14.66 18.76-28.37 30.92-37.5 3-2.01 6-4 8.99-5.98z" clip-rule="evenodd"/>
  </g>
  <g fill="#F26C50">
    <path d="M200.51 186.85c-.01.1-.04.37-.09.81-.05.45-.09.93-.14 1.46h-.56c-2.63 0-4.98-.33-7.03-.99-2.05-.66-3.74-1.62-5.05-2.87-.92-.87-1.64-1.91-2.18-3.12-.53-1.21-.8-2.59-.8-4.15 0-1.39.26-2.67.79-3.82s1.22-2.16 2.07-3.02c1.24-1.24 2.91-2.23 5-2.96s4.33-1.09 6.72-1.09h.73c.01.19.03.5.07.93.03.43.07.88.11 1.38h-.56c-1.35 0-2.75.15-4.2.44-1.45.3-2.7.74-3.75 1.33-1.36.77-2.41 1.76-3.15 2.97-.73 1.21-1.1 2.51-1.1 3.9 0 1.45.33 2.77.99 3.95.66 1.18 1.7 2.18 3.13 2.98 1.17.67 2.47 1.15 3.92 1.45 1.44.3 2.88.45 4.31.45h.31l.46-.03zm18.37-6.16c0 1.24-.22 2.44-.67 3.57-.45 1.14-1.09 2.11-1.93 2.91-.71.68-1.5 1.19-2.37 1.54-.87.35-1.85.53-2.96.53-1.04 0-2.01-.17-2.91-.52-.91-.35-1.72-.86-2.43-1.54-.82-.78-1.45-1.75-1.9-2.89-.45-1.15-.67-2.36-.67-3.64 0-1.23.19-2.37.57-3.4.38-1.03.98-1.97 1.79-2.79.72-.75 1.57-1.33 2.53-1.73.96-.4 1.98-.6 3.04-.6 1.12 0 2.14.19 3.05.56.91.37 1.72.93 2.44 1.67.82.85 1.43 1.8 1.83 2.86.39 1.04.59 2.2.59 3.47zm-2.59.11c0-1.01-.16-1.99-.49-2.94-.33-.95-.84-1.76-1.53-2.41-.42-.41-.92-.72-1.5-.94-.58-.22-1.18-.33-1.81-.33-.74 0-1.39.12-1.94.35-.55.24-1.07.61-1.55 1.11-.57.58-1.02 1.32-1.35 2.22-.33.9-.49 1.83-.49 2.8 0 1.09.17 2.1.5 3.02.33.92.87 1.71 1.62 2.37.42.38.91.66 1.46.86.55.2 1.13.3 1.75.3.68 0 1.31-.12 1.9-.35s1.1-.58 1.55-1.03c.62-.62 1.09-1.37 1.41-2.25.3-.89.47-1.81.47-2.78zm30.28 8.03h-2.56c.01-.12.02-.87.04-2.25s.02-2.69.02-3.91c0-.48 0-1.27-.01-2.37s-.01-1.92-.02-2.47c-.03-1.29-.29-2.18-.77-2.67-.48-.49-1.22-.74-2.23-.74-.59 0-1.3.15-2.11.44-.81.29-1.73.75-2.76 1.36 0 .06 0 .16.01.32s.01.37.01.63c0 .87 0 1.75-.02 2.64-.01.9-.02 1.75-.02 2.56 0 1.78.01 3.27.04 4.48.03 1.21.04 1.87.04 1.98h-2.56c0-.12.01-.77.03-1.94.02-1.18.03-2.57.03-4.18 0-.54 0-1.35-.01-2.44-.01-1.09-.01-1.89-.02-2.4-.01-.47-.05-.92-.13-1.35-.08-.43-.22-.79-.42-1.09-.23-.33-.52-.58-.87-.75-.36-.17-.86-.25-1.52-.25-.6 0-1.31.18-2.12.53-.81.35-1.74.86-2.79 1.52 0 .18 0 .86-.02 2.05-.01 1.18-.02 2.15-.02 2.9 0 1.27.01 2.81.04 4.59.03 1.78.04 2.73.04 2.84h-2.56c0-.08.01-.71.03-1.87.02-1.16.03-3.09.03-5.78 0-.88 0-2.06-.01-3.56-.01-1.49-.02-3.18-.06-5.07h2.53l-.02 1.85.02.02c.72-.51 1.63-1.02 2.73-1.53 1.1-.5 2.06-.75 2.91-.75 1.06 0 1.94.22 2.65.66.71.44 1.21 1 1.51 1.67h.03c1.24-.76 2.38-1.34 3.43-1.74 1.04-.4 1.93-.59 2.66-.59 1.49 0 2.65.43 3.49 1.3.84.86 1.25 2.03 1.25 3.5 0 1.14-.01 2.1-.02 2.87-.02.78-.02 1.6-.02 2.47 0 1.8.01 3.33.04 4.57.05 1.2.06 1.86.06 1.95zm29.05 0h-2.56c.01-.12.02-.87.04-2.25s.02-2.69.02-3.91c0-.48 0-1.27-.01-2.37s-.01-1.92-.02-2.47c-.03-1.29-.29-2.18-.77-2.67-.48-.49-1.22-.74-2.23-.74-.59 0-1.3.15-2.11.44-.81.29-1.73.75-2.76 1.36 0 .06 0 .16.01.32s.01.37.01.63c0 .87 0 1.75-.02 2.64-.01.9-.02 1.75-.02 2.56 0 1.78.01 3.27.04 4.48.03 1.21.04 1.87.04 1.98h-2.56c0-.12.01-.77.03-1.94.02-1.18.03-2.57.03-4.18 0-.54 0-1.35-.01-2.44 0-1.09-.01-1.89-.02-2.4-.01-.47-.05-.92-.13-1.35-.08-.43-.22-.79-.42-1.09-.23-.33-.52-.58-.87-.75s-.86-.25-1.52-.25c-.6 0-1.31.18-2.12.53-.81.35-1.74.86-2.79 1.52 0 .18 0 .86-.02 2.05-.01 1.18-.02 2.15-.02 2.9 0 1.27.01 2.81.04 4.59.03 1.78.04 2.73.04 2.84h-2.56c0-.08.01-.71.03-1.87.02-1.16.03-3.09.03-5.78 0-.88 0-2.06-.01-3.56-.01-1.49-.02-3.18-.06-5.07h2.53l-.02 1.85.02.02c.72-.51 1.63-1.02 2.73-1.53 1.1-.5 2.06-.75 2.91-.75 1.06 0 1.94.22 2.65.66.71.44 1.21 1 1.51 1.67h.03c1.24-.76 2.38-1.34 3.43-1.74 1.04-.4 1.93-.59 2.66-.59 1.49 0 2.65.43 3.49 1.3.84.86 1.25 2.03 1.25 3.5 0 1.14-.01 2.1-.02 2.87-.02.78-.02 1.6-.02 2.47 0 1.8.01 3.33.04 4.57.05 1.2.06 1.86.06 1.95zm20.23-8.14c0 1.24-.22 2.44-.67 3.57-.45 1.14-1.09 2.11-1.93 2.91-.71.68-1.5 1.19-2.37 1.54-.87.35-1.85.53-2.96.53-1.04 0-2.01-.17-2.91-.52-.91-.35-1.72-.86-2.43-1.54-.82-.78-1.45-1.75-1.9-2.89s-.67-2.36-.67-3.64c0-1.23.19-2.37.57-3.4s.98-1.97 1.79-2.79c.72-.75 1.57-1.33 2.53-1.73.96-.4 1.98-.6 3.04-.6 1.12 0 2.14.19 3.05.56.91.37 1.72.93 2.44 1.67.82.85 1.43 1.8 1.83 2.86.39 1.04.59 2.2.59 3.47zm-2.59.11c0-1.01-.16-1.99-.49-2.94-.33-.95-.84-1.76-1.53-2.41-.42-.41-.92-.72-1.5-.94-.58-.22-1.18-.33-1.81-.33-.74 0-1.39.12-1.94.35-.55.24-1.07.61-1.55 1.11-.57.58-1.02 1.32-1.35 2.22-.33.9-.49 1.83-.49 2.8 0 1.09.17 2.1.5 3.02.33.92.87 1.71 1.62 2.37.42.38.91.66 1.46.86.55.2 1.13.3 1.75.3.68 0 1.31-.12 1.9-.35.59-.24 1.1-.58 1.55-1.03.62-.62 1.09-1.37 1.41-2.25.3-.89.47-1.81.47-2.78zm20.5 8.03h-2.56c.01-.3.02-1.29.04-2.98.02-1.68.02-2.72.02-3.12 0-.56 0-1.38-.01-2.47-.01-1.09-.01-1.89-.02-2.39-.03-1.23-.27-2.12-.71-2.65-.44-.53-1.21-.8-2.3-.8-.66 0-1.47.19-2.44.58-.97.39-1.95.88-2.95 1.48 0 .12 0 .76-.02 1.92-.01 1.16-.02 2.22-.02 3.17 0 1.24.01 2.75.04 4.5.03 1.76.04 2.68.04 2.77h-2.56c0-.07.01-.73.03-1.97.02-1.24.03-3.08.03-5.53 0-1.13 0-2.44-.01-3.96-.01-1.51-.02-3.12-.06-4.83h2.53l-.02 1.85.02.03c1.51-.86 2.77-1.46 3.78-1.79 1.01-.34 1.85-.51 2.52-.51 1.38 0 2.49.43 3.33 1.3.84.86 1.25 2.04 1.25 3.55 0 1.35-.01 2.52-.02 3.5-.02.98-.02 1.78-.02 2.39 0 .98.01 2.19.04 3.66.04 1.45.05 2.23.05 2.3zm28.21-.03c-.13 0-.81-.01-2.05-.02-1.24-.01-2.81-.01-4.74-.01-1.26 0-2.46.01-3.6.02-1.14.01-2.1.02-2.89.02l.06-5.61c.02-1.89.02-3.75.02-5.57 0-3.04-.01-5.37-.03-6.97-.02-1.6-.04-2.72-.05-3.36h2.67c-.02 1.38-.04 2.98-.05 4.79-.01 1.81-.02 3.3-.02 4.45 0 2.82.01 5.17.02 7.06.01 1.89.02 2.88.02 2.99.44 0 .98 0 1.6.01.63.01 1.19.01 1.7.01 1.93 0 3.61-.01 5.04-.02 1.43-.02 2.19-.02 2.29-.02v2.23zm15.04-9.14c0 2.66 0 4.83-.02 6.5-.01 1.67-.02 2.57-.02 2.7-.11.01-.61.05-1.51.12-.9.07-2.05.1-3.46.1-.88 0-1.78-.08-2.67-.24s-1.67-.39-2.31-.69c-.86-.4-1.56-.94-2.1-1.63-.53-.69-.8-1.51-.8-2.48 0-1.02.32-1.9.95-2.65.63-.75 1.51-1.35 2.63-1.81.7-.29 1.64-.55 2.81-.78 1.17-.23 2.51-.4 4.01-.52-.06-.84-.28-1.52-.63-2.06-.36-.53-.88-.94-1.57-1.22-.47-.19-1-.33-1.59-.41-.58-.08-1.26-.12-2.04-.12-.49 0-.9.01-1.24.03-.34.02-.8.05-1.38.08l.26-2.14.96-.06c.48-.03 1.14-.04 1.97-.04 1.27 0 2.41.13 3.41.4 1 .26 1.83.69 2.49 1.28.62.56 1.08 1.25 1.39 2.07.31.83.46 2.01.46 3.57zm-2.47 3.88v-1.38c0-.56 0-1.2-.02-1.93-.47.02-1.31.12-2.49.28-1.19.17-2.19.4-3 .72-.6.23-1.14.56-1.61 1.01-.47.45-.7 1.01-.7 1.67 0 .73.2 1.32.6 1.76.4.45.94.78 1.64 1.02.53.18 1.12.31 1.76.39.64.08 1.32.12 2.03.12.22 0 .48-.01.79-.02l.99-.03c0-.08 0-.43.01-1.06-.01-.63 0-1.48 0-2.55zm22.25-2.99c0 1.76-.43 3.27-1.3 4.53-.87 1.26-2.04 2.21-3.52 2.83-.96.41-2.06.7-3.29.89-1.23.19-2.71.28-4.44.28h-1.44c.01-.82.02-2.36.04-4.6.02-2.24.02-4.94.02-8.09 0-1.93 0-3.8-.02-5.61-.01-1.81-.03-3.66-.05-5.55h2.56l-.05 7.42c2.21.02 3.99.22 5.32.59s2.44.87 3.33 1.5c.92.65 1.62 1.47 2.11 2.45.48.99.73 2.11.73 3.36zm-2.6.07c0-1.3-.37-2.38-1.11-3.26-.74-.88-1.69-1.52-2.86-1.91-.6-.2-1.26-.36-1.96-.47-.7-.11-1.42-.17-2.17-.17h-.79c0 .24 0 1.09-.01 2.56s-.01 2.69-.01 3.64c0 1.79.01 3.05.02 3.79.01.74.02 1.49.02 2.25 1.19 0 2.27-.09 3.26-.27.98-.18 1.83-.45 2.54-.83 1.04-.55 1.81-1.27 2.32-2.16.5-.89.75-1.95.75-3.17zm32.79 6.92l-2.03 1.66c-.24-.25-1.08-1.18-2.52-2.79-1.45-1.62-3.67-4.14-6.68-7.56l.02-.14c.41-.11.96-.34 1.64-.7.68-.36 1.25-.75 1.72-1.17.4-.37.75-.81 1.04-1.35.3-.54.45-1.25.45-2.16 0-.82-.22-1.54-.66-2.13-.44-.59-1.04-1.03-1.81-1.31-.63-.24-1.28-.38-1.98-.43-.69-.05-1.33-.07-1.91-.07-.39 0-.69 0-.89.01s-.36.01-.45.01c-.02 2.04-.04 3.84-.04 5.4 0 1.56-.01 2.66-.01 3.3 0 1.47.01 3.47.02 5.99.02 2.52.03 4.11.04 4.75h-2.67c.01-.64.03-1.89.05-3.74.02-1.85.03-4.15.03-6.91v-2.98c0-1.45-.03-4.09-.08-7.92.11 0 .65-.01 1.62-.03.97-.02 1.87-.03 2.69-.03.94 0 1.85.06 2.73.16.88.11 1.75.34 2.59.69 1.07.45 1.91 1.11 2.54 1.98.63.87.94 1.9.94 3.08 0 1.52-.47 2.79-1.41 3.8-.94 1.01-1.83 1.77-2.67 2.26v.08c1.48 1.72 3.1 3.49 4.87 5.31 1.74 1.82 2.69 2.8 2.82 2.94zm16.12-7.45h-11.71c.01 1.14.25 2.18.73 3.13.48.95 1.2 1.73 2.19 2.36.63.4 1.34.7 2.14.89.8.2 1.76.3 2.88.3.62 0 1.18-.02 1.69-.05.51-.03.83-.05.95-.06l-.29 2.14c-.09.01-.37.03-.86.06s-1.06.04-1.72.04c-1.73 0-3.23-.22-4.51-.67s-2.33-1.06-3.15-1.84c-.7-.65-1.3-1.49-1.79-2.51-.49-1.02-.74-2.15-.74-3.39 0-1.22.18-2.33.55-3.31s.92-1.9 1.65-2.75c.64-.73 1.43-1.29 2.37-1.69.94-.4 1.92-.59 2.94-.59 1 0 1.9.15 2.67.45s1.45.76 2.03 1.37c.64.69 1.12 1.53 1.46 2.53.34.98.51 2.19.52 3.59zm-2.51-1.8c-.17-1.33-.63-2.37-1.37-3.13-.74-.76-1.71-1.13-2.92-1.13s-2.22.38-3.03 1.15c-.81.77-1.37 1.8-1.68 3.11h9zm15.71 5.83c0 .79-.19 1.5-.58 2.12-.39.62-.9 1.13-1.52 1.51-.66.41-1.44.72-2.34.92-.9.21-1.9.31-2.99.31-.53 0-1.08-.02-1.65-.07-.57-.05-.89-.08-.96-.09l-.1-2.11c.1.01.47.04 1.13.09.65.05 1.3.07 1.95.07.38 0 .86-.03 1.46-.1.59-.06 1.09-.18 1.47-.35.54-.24.94-.52 1.2-.87.26-.34.39-.76.39-1.24 0-.44-.11-.8-.34-1.07-.23-.27-.54-.54-.94-.8-.43-.29-1.02-.6-1.77-.92-.75-.33-1.38-.64-1.89-.94-.72-.44-1.28-.96-1.66-1.56-.38-.6-.57-1.3-.57-2.09 0-.79.22-1.51.66-2.14.44-.63 1.02-1.14 1.76-1.53.64-.34 1.34-.57 2.12-.68s1.52-.17 2.25-.17c.66 0 1.2.01 1.62.03.42.02.67.03.73.03l.18 2.14c-.08 0-.41-.02-1-.06s-1.24-.06-1.94-.06c-.5 0-.97.04-1.42.13-.45.09-.83.21-1.14.37-.47.24-.8.52-1 .85-.2.33-.3.66-.3.97 0 .43.14.8.42 1.11.28.31.61.57.99.79.44.26 1.05.56 1.82.92.77.35 1.33.64 1.67.85.76.47 1.33 1 1.73 1.58s.56 1.26.56 2.06zm17.2-4.03h-11.71c.01 1.14.25 2.18.73 3.13.48.95 1.2 1.73 2.19 2.36.63.4 1.34.7 2.14.89.8.2 1.76.3 2.88.3.62 0 1.18-.02 1.69-.05.51-.03.83-.05.95-.06l-.29 2.14c-.09.01-.37.03-.86.06-.48.03-1.06.04-1.72.04-1.73 0-3.23-.22-4.51-.67s-2.33-1.06-3.15-1.84c-.7-.65-1.3-1.49-1.79-2.51-.49-1.02-.74-2.15-.74-3.39 0-1.22.18-2.33.55-3.31s.92-1.9 1.65-2.75c.64-.73 1.43-1.29 2.37-1.69.94-.4 1.92-.59 2.94-.59 1 0 1.9.15 2.67.45.78.3 1.45.76 2.03 1.37.64.69 1.12 1.53 1.46 2.53.33.98.51 2.19.52 3.59zm-2.51-1.8c-.17-1.33-.63-2.37-1.37-3.13-.74-.76-1.71-1.13-2.92-1.13s-2.22.38-3.03 1.15c-.81.77-1.37 1.8-1.68 3.11h9zm18.04 1.37c0 2.66-.01 4.83-.02 6.5s-.02 2.57-.02 2.7c-.11.01-.61.05-1.51.12-.9.07-2.05.1-3.46.1-.88 0-1.78-.08-2.67-.24-.9-.16-1.67-.39-2.32-.69-.86-.4-1.56-.94-2.1-1.63-.53-.69-.8-1.51-.8-2.48 0-1.02.32-1.9.95-2.65.63-.75 1.51-1.35 2.63-1.81.7-.29 1.64-.55 2.81-.78s2.51-.4 4.01-.52c-.06-.84-.28-1.52-.63-2.06-.36-.53-.88-.94-1.57-1.22-.47-.19-1-.33-1.59-.41-.58-.08-1.26-.12-2.04-.12-.49 0-.9.01-1.24.03-.34.02-.8.05-1.38.08l.26-2.14.96-.06c.48-.03 1.14-.04 1.97-.04 1.27 0 2.41.13 3.41.4 1 .26 1.83.69 2.48 1.28.62.56 1.08 1.25 1.39 2.07.32.83.48 2.01.48 3.57zm-2.48 3.88v-1.38c0-.56-.01-1.2-.02-1.93-.47.02-1.31.12-2.49.28-1.19.17-2.19.4-3 .72-.6.23-1.14.56-1.61 1.01-.47.45-.7 1.01-.7 1.67 0 .73.2 1.32.6 1.76.4.45.95.78 1.64 1.02.53.18 1.11.31 1.76.39.64.08 1.32.12 2.03.12.22 0 .48-.01.79-.02l.99-.03c0-.08 0-.43.01-1.06v-2.55zm17.73-9.09c-.59.14-1.5.43-2.73.88s-2.64 1.05-4.23 1.8c0 .12-.01.66-.02 1.62-.01.96-.02 1.85-.02 2.68 0 1.27.01 2.77.04 4.51.03 1.74.04 2.7.04 2.9h-2.56c0-.18.01-.78.03-1.8.02-1.02.03-2.76.03-5.23 0-1-.01-2.39-.02-4.18-.01-1.79-.03-3.48-.05-5.07h2.51V175l.02.02c1.22-.69 2.42-1.28 3.61-1.78s2.14-.85 2.85-1.03l.5 2.24zm14.09 12.29l-.19 2.15h-.89c-1.39 0-2.69-.13-3.9-.39s-2.29-.65-3.25-1.17c-1.31-.71-2.33-1.64-3.06-2.81-.73-1.17-1.1-2.47-1.1-3.91 0-1.29.34-2.47 1.01-3.55.67-1.08 1.54-1.96 2.62-2.65.97-.62 2.13-1.1 3.49-1.42 1.35-.33 2.75-.49 4.2-.49h.67l.13 2.16h-.5c-1.2 0-2.22.07-3.07.22-.85.15-1.67.38-2.47.72-1.07.43-1.92 1.1-2.54 2.03-.63.93-.94 1.91-.94 2.96 0 1.26.3 2.31.88 3.16.59.85 1.37 1.51 2.34 1.97.76.36 1.61.63 2.56.79.95.16 1.95.24 3.01.24h.58c.2-.01.35-.01.42-.01zm17.7 2.09h-2.56c.01-.32.02-1.29.04-2.9.02-1.61.02-2.68.02-3.19 0-.56 0-1.38-.01-2.47-.01-1.09-.01-1.89-.02-2.39-.03-1.23-.27-2.12-.71-2.65-.44-.53-1.21-.8-2.3-.8-.61 0-1.4.19-2.37.55-.96.37-1.97.87-3.04 1.49l.06 12.37h-2.56c.01-.42.03-2.1.04-5.06s.02-5.39.02-7.3c0-1.24 0-2.81-.01-4.71-.01-1.89-.02-4.07-.06-6.52h2.56l-.06 9.15.02.02c1.55-.86 2.81-1.45 3.79-1.78.98-.33 1.82-.5 2.53-.5 1.38 0 2.49.43 3.33 1.3.84.86 1.25 2.04 1.25 3.55 0 1.35-.01 2.52-.02 3.5-.02.98-.02 1.78-.02 2.39 0 .98.01 2.1.03 3.36.02 1.25.04 2.12.05 2.59zm17.64 0h-2.67c.01-.64.03-1.79.05-3.44.02-1.65.03-4.02.03-7.11 0-1.22-.01-2.83-.02-4.81-.01-1.98-.03-4.04-.06-6.18h2.67c-.02 1.53-.04 3.32-.06 5.35-.02 2.03-.02 3.69-.02 4.98 0 3.26.01 5.78.03 7.57.02 1.78.04 3 .05 3.64zm20.21 0h-2.56c.01-.3.02-1.29.04-2.98.02-1.68.02-2.72.02-3.12 0-.56 0-1.38-.01-2.47-.01-1.09-.01-1.89-.02-2.39-.03-1.23-.27-2.12-.71-2.65-.44-.53-1.21-.8-2.3-.8-.66 0-1.47.19-2.45.58-.97.39-1.95.88-2.95 1.48 0 .12 0 .76-.02 1.92-.01 1.16-.02 2.22-.02 3.17 0 1.24.01 2.75.04 4.5.03 1.76.04 2.68.04 2.77h-2.56c0-.07.01-.73.03-1.97.02-1.24.03-3.08.03-5.53 0-1.13 0-2.44-.01-3.96-.01-1.51-.02-3.12-.06-4.83h2.53l-.02 1.85.02.03c1.51-.86 2.77-1.46 3.78-1.79 1.01-.34 1.85-.51 2.52-.51 1.38 0 2.49.43 3.33 1.3.84.86 1.26 2.04 1.26 3.55 0 1.35-.01 2.52-.02 3.5-.02.98-.02 1.78-.02 2.39 0 .98.01 2.19.04 3.66.03 1.45.05 2.23.05 2.3zm15.2-21.53h-.81c-1.02 0-1.81.09-2.4.27-.58.18-1.11.49-1.57.93-.36.33-.63.79-.82 1.37s-.28 1.23-.28 1.95v.72h5.51v1.88h-5.51c0 3.48.01 6.7.02 9.68.02 2.98.03 4.55.03 4.72h-2.56c0-.17.01-1.68.03-4.53.02-2.85.03-6.14.03-9.87h-3.19v-1.88h3.19v-.79c0-.94.12-1.78.37-2.53.25-.74.69-1.44 1.31-2.1.54-.56 1.26-1.01 2.15-1.36.9-.35 2-.53 3.31-.53h.87l.32 2.07zm12.28 7.15c-.59.14-1.5.43-2.73.88s-2.64 1.05-4.24 1.8c0 .12 0 .66-.02 1.62-.01.96-.02 1.85-.02 2.68 0 1.27.01 2.77.04 4.51.03 1.74.04 2.7.04 2.9h-2.56c0-.18.01-.78.03-1.8.02-1.02.03-2.76.03-5.23 0-1-.01-2.39-.02-4.18-.01-1.79-.03-3.48-.05-5.07h2.51V175l.02.02c1.22-.69 2.42-1.28 3.61-1.78s2.14-.85 2.85-1.03l.51 2.24zm14.54 5.21c0 2.66-.01 4.83-.02 6.5s-.02 2.57-.02 2.7c-.11.01-.61.05-1.51.12-.9.07-2.05.1-3.47.1-.88 0-1.77-.08-2.67-.24s-1.67-.39-2.31-.69c-.86-.4-1.56-.94-2.1-1.63-.53-.69-.8-1.51-.8-2.48 0-1.02.31-1.9.95-2.65.63-.75 1.51-1.35 2.63-1.81.7-.29 1.64-.55 2.81-.78 1.17-.23 2.51-.4 4.01-.52-.06-.84-.27-1.52-.63-2.06-.35-.53-.88-.94-1.57-1.22-.48-.19-1-.33-1.59-.41-.58-.08-1.26-.12-2.04-.12-.48 0-.9.01-1.24.03-.34.02-.8.05-1.38.08l.26-2.14.96-.06c.48-.03 1.14-.04 1.97-.04 1.27 0 2.41.13 3.41.4 1 .26 1.83.69 2.49 1.28.62.56 1.08 1.25 1.39 2.07.31.83.47 2.01.47 3.57zm-2.48 3.88v-1.38c0-.56-.01-1.2-.02-1.93-.47.02-1.31.12-2.49.28-1.19.17-2.19.4-3 .72-.6.23-1.14.56-1.61 1.01-.47.45-.7 1.01-.7 1.67 0 .73.2 1.32.6 1.76.4.45.94.78 1.64 1.02.53.18 1.12.31 1.76.39.64.08 1.32.12 2.03.12.22 0 .48-.01.8-.02l.99-.03c0-.08 0-.43.01-1.06-.01-.63-.01-1.48-.01-2.55zm17.19.58c0 .79-.19 1.5-.58 2.12-.39.62-.9 1.13-1.52 1.51-.66.41-1.44.72-2.34.92-.9.21-1.9.31-2.99.31-.53 0-1.08-.02-1.65-.07-.57-.05-.89-.08-.96-.09l-.1-2.11c.1.01.47.04 1.13.09.65.05 1.3.07 1.95.07.38 0 .86-.03 1.46-.1.59-.06 1.08-.18 1.47-.35.54-.24.94-.52 1.2-.87.26-.34.39-.76.39-1.24 0-.44-.11-.8-.34-1.07-.23-.27-.54-.54-.94-.8-.43-.29-1.02-.6-1.77-.92-.75-.33-1.38-.64-1.89-.94-.72-.44-1.28-.96-1.66-1.56-.38-.6-.58-1.3-.58-2.09 0-.79.22-1.51.66-2.14.44-.63 1.02-1.14 1.76-1.53.64-.34 1.34-.57 2.12-.68s1.52-.17 2.25-.17c.66 0 1.2.01 1.62.03s.67.03.73.03l.18 2.14c-.08 0-.41-.02-1-.06s-1.24-.06-1.94-.06c-.5 0-.97.04-1.42.13-.45.09-.83.21-1.14.37-.46.24-.8.52-1 .85-.2.33-.3.66-.3.97 0 .43.14.8.42 1.11.28.31.61.57.99.79.44.26 1.05.56 1.82.92.77.35 1.33.64 1.67.85.76.47 1.33 1 1.73 1.58s.57 1.26.57 2.06zm13.47 2.71l-.29 2.04c-.08.01-.26.02-.56.03-.3.01-.56.02-.77.02-2.21 0-3.89-.46-5.02-1.38-1.13-.92-1.7-2.33-1.7-4.22 0-1.19.01-2.47.03-3.83.02-1.36.02-3.05.02-5.07h-2.72v-1.88h2.87v-3.81h2.35v3.81h5.8v1.88h-5.8c0 .23-.01.9-.02 2.01-.02 1.12-.02 1.94-.02 2.48v3.99c0 1.4.38 2.4 1.13 3.02.76.62 1.92.92 3.5.92.2 0 .43 0 .7-.01.25.01.42 0 .5 0zm13.57-12.38c-.6.14-1.5.43-2.73.88s-2.64 1.05-4.23 1.8c0 .12-.01.66-.02 1.62-.01.96-.02 1.85-.02 2.68 0 1.27.01 2.77.04 4.51.03 1.74.04 2.7.04 2.9h-2.56c0-.18.01-.78.03-1.8.02-1.02.03-2.76.03-5.23 0-1-.01-2.39-.02-4.18-.01-1.79-.03-3.48-.05-5.07h2.51V175l.02.02c1.22-.69 2.42-1.28 3.61-1.78s2.14-.85 2.85-1.03l.5 2.24zm16.63 14.38h-2.48v-1.87l-.02-.02c-.76.49-1.7 1-2.83 1.52-1.13.52-2.24.78-3.33.78-1.49 0-2.66-.44-3.5-1.32-.84-.88-1.26-2.11-1.26-3.7 0-.86.01-1.88.03-3.06.02-1.18.02-2.05.02-2.58 0-.98-.01-2.18-.04-3.61-.03-1.43-.04-2.24-.04-2.42h2.56c0 .14-.01.91-.03 2.32-.02 1.41-.03 2.53-.03 3.36 0 .74.01 1.66.02 2.77.01 1.1.02 1.89.02 2.35.02 1.26.24 2.19.66 2.78.42.59 1.1.89 2.04.89.96 0 2.02-.26 3.17-.77 1.15-.52 1.99-.97 2.53-1.35 0-.13.01-.72.02-1.78s.02-2.37.02-3.95c0-1.13-.01-2.47-.04-4.05-.03-1.57-.04-2.43-.04-2.56h2.56c0 .18-.01.79-.03 1.81-.02 1.02-.03 2.77-.03 5.24 0 1.38 0 2.6.02 3.64-.01 1.03.01 2.9.03 5.58zm16.73-2.09l-.19 2.15h-.89c-1.39 0-2.69-.13-3.9-.39s-2.29-.65-3.26-1.17c-1.3-.71-2.33-1.64-3.06-2.81-.73-1.17-1.1-2.47-1.1-3.91 0-1.29.33-2.47 1-3.55.67-1.08 1.55-1.96 2.63-2.65.97-.62 2.13-1.1 3.49-1.42 1.35-.33 2.75-.49 4.2-.49h.67l.13 2.16h-.5c-1.2 0-2.22.07-3.07.22-.85.15-1.67.38-2.47.72-1.07.43-1.92 1.1-2.54 2.03-.62.93-.94 1.91-.94 2.96 0 1.26.3 2.31.88 3.16.59.85 1.37 1.51 2.34 1.97.76.36 1.61.63 2.56.79s1.95.24 3.01.24h.58c.21-.01.35-.01.43-.01zm13.16.09l-.29 2.04c-.08.01-.26.02-.56.03-.3.01-.56.02-.77.02-2.21 0-3.89-.46-5.02-1.38-1.13-.92-1.7-2.33-1.7-4.22 0-1.19.01-2.47.03-3.83.02-1.36.02-3.05.02-5.07h-2.72v-1.88h2.87v-3.81h2.35v3.81h5.8v1.88h-5.8c0 .23-.01.9-.02 2.01-.02 1.12-.02 1.94-.02 2.48v3.99c0 1.4.38 2.4 1.13 3.02.76.62 1.92.92 3.5.92.2 0 .43 0 .7-.01s.43 0 .5 0zm17.44 2h-2.48v-1.87l-.02-.02c-.76.49-1.7 1-2.83 1.52-1.13.52-2.24.78-3.33.78-1.49 0-2.65-.44-3.5-1.32-.84-.88-1.26-2.11-1.26-3.7 0-.86.01-1.88.02-3.06.02-1.18.03-2.05.03-2.58 0-.98-.01-2.18-.04-3.61-.03-1.43-.04-2.24-.04-2.42h2.56c0 .14-.01.91-.03 2.32-.02 1.41-.03 2.53-.03 3.36 0 .74.01 1.66.02 2.77.01 1.1.02 1.89.02 2.35.02 1.26.24 2.19.66 2.78.42.59 1.1.89 2.04.89.96 0 2.02-.26 3.17-.77 1.15-.52 2-.97 2.54-1.35 0-.13.01-.72.02-1.78s.02-2.37.02-3.95c0-1.13-.01-2.47-.04-4.05-.03-1.57-.04-2.43-.04-2.56h2.56c0 .18-.01.79-.03 1.81-.02 1.02-.03 2.77-.03 5.24 0 1.38.01 2.6.02 3.64-.01 1.03 0 2.9.02 5.58zm15.41-14.38c-.59.14-1.5.43-2.73.88s-2.64 1.05-4.23 1.8c0 .12-.01.66-.02 1.62-.01.96-.02 1.85-.02 2.68 0 1.27.01 2.77.04 4.51.03 1.74.04 2.7.04 2.9h-2.56c0-.18.01-.78.03-1.8.02-1.02.03-2.76.03-5.23 0-1-.01-2.39-.02-4.18-.01-1.79-.03-3.48-.05-5.07h2.51V175l.02.02c1.22-.69 2.42-1.28 3.61-1.78s2.14-.85 2.85-1.03l.5 2.24zm15.92 5.64h-11.71c.01 1.14.25 2.18.73 3.13.48.95 1.21 1.73 2.19 2.36.63.4 1.34.7 2.14.89.8.2 1.76.3 2.88.3.62 0 1.18-.02 1.69-.05.51-.03.83-.05.95-.06l-.29 2.14c-.09.01-.37.03-.86.06-.48.03-1.06.04-1.71.04-1.73 0-3.23-.22-4.51-.67-1.28-.44-2.33-1.06-3.15-1.84-.7-.65-1.3-1.49-1.79-2.51-.49-1.02-.74-2.15-.74-3.39 0-1.22.18-2.33.55-3.31.37-.99.92-1.9 1.65-2.75.64-.73 1.43-1.29 2.37-1.69.94-.4 1.92-.59 2.94-.59 1 0 1.9.15 2.67.45s1.45.76 2.02 1.37c.64.69 1.12 1.53 1.46 2.53.33.98.5 2.19.52 3.59zm-2.51-1.8c-.17-1.33-.63-2.37-1.37-3.13s-1.71-1.13-2.92-1.13-2.22.38-3.03 1.15c-.81.77-1.37 1.8-1.69 3.11h9.01zm-535.75 28.55h-.81c-1.01 0-1.81.09-2.4.27-.58.18-1.11.49-1.57.93-.36.33-.63.79-.82 1.37s-.28 1.23-.28 1.95v.72h5.51v1.88h-5.51c0 3.48.01 6.7.02 9.68.02 2.98.02 4.55.02 4.72h-2.56c0-.17.01-1.68.03-4.53.02-2.85.03-6.14.03-9.87h-3.19v-1.88h3.19v-.79c0-.94.12-1.78.37-2.53.25-.74.69-1.44 1.31-2.1.54-.56 1.26-1.01 2.15-1.36.9-.35 2-.53 3.3-.53h.87l.34 2.07zm17.19 13.39c0 1.24-.22 2.44-.67 3.57-.45 1.14-1.09 2.11-1.93 2.91-.71.68-1.5 1.19-2.37 1.54-.87.35-1.85.53-2.96.53-1.04 0-2.01-.17-2.91-.52s-1.72-.86-2.43-1.54c-.82-.78-1.45-1.75-1.9-2.9s-.67-2.36-.67-3.63c0-1.23.19-2.37.57-3.4.38-1.03.98-1.97 1.79-2.79.72-.75 1.57-1.33 2.53-1.73.96-.4 1.98-.6 3.04-.6 1.12 0 2.14.19 3.05.56.91.37 1.72.93 2.44 1.67.82.85 1.43 1.8 1.83 2.86.39 1.04.59 2.2.59 3.47zm-2.59.11c0-1.01-.16-1.99-.49-2.94-.33-.95-.84-1.76-1.53-2.41-.42-.41-.92-.72-1.5-.94-.58-.22-1.18-.33-1.81-.33-.74 0-1.39.12-1.94.35-.55.24-1.07.61-1.55 1.11-.57.58-1.02 1.32-1.35 2.22-.33.9-.49 1.83-.49 2.8 0 1.09.17 2.1.5 3.02.33.92.87 1.71 1.62 2.37.42.38.91.66 1.46.86.55.2 1.13.3 1.75.3.68 0 1.31-.12 1.9-.35.59-.24 1.1-.58 1.55-1.03.62-.62 1.09-1.37 1.41-2.25.31-.89.47-1.82.47-2.78zm16.54-6.36c-.59.14-1.5.43-2.73.88s-2.64 1.05-4.24 1.8c0 .12 0 .66-.02 1.62-.01.96-.02 1.85-.02 2.68 0 1.27.01 2.77.04 4.51.03 1.74.04 2.7.04 2.9h-2.56c0-.18.01-.78.03-1.8.02-1.02.03-2.76.03-5.23 0-1 0-2.39-.02-4.18-.01-1.79-.03-3.48-.05-5.07h2.51v2.45l.02.02c1.22-.69 2.42-1.28 3.61-1.78s2.14-.85 2.85-1.03l.51 2.23zm20.48 12.39l-.29 2.04c-.08.01-.26.02-.56.03-.3.01-.55.02-.77.02-2.21 0-3.89-.46-5.02-1.37-1.13-.92-1.7-2.33-1.7-4.22 0-1.19.01-2.47.02-3.83.02-1.36.02-3.05.02-5.07h-2.72v-1.88h2.87v-3.81h2.35v3.81h5.8v1.88h-5.8c0 .23-.01.9-.02 2.01-.02 1.12-.02 1.94-.02 2.48v3.99c0 1.4.38 2.4 1.13 3.02.76.62 1.92.92 3.5.92.2 0 .43 0 .7-.01.26-.01.44-.01.51-.01zm17.54 2h-2.56c.01-.32.02-1.29.04-2.9s.02-2.68.02-3.19c0-.56 0-1.38-.01-2.47-.01-1.09-.01-1.89-.02-2.39-.03-1.23-.27-2.12-.71-2.65-.44-.53-1.21-.8-2.3-.8-.62 0-1.4.19-2.37.55-.96.37-1.97.87-3.04 1.49l.07 12.37h-2.56c.01-.42.02-2.1.04-5.06.02-2.95.02-5.39.02-7.29 0-1.24 0-2.81-.01-4.71-.01-1.89-.02-4.07-.06-6.52h2.56l-.06 9.15.02.02c1.54-.86 2.81-1.45 3.79-1.78.98-.33 1.82-.5 2.53-.5 1.38 0 2.49.43 3.33 1.3.84.86 1.25 2.05 1.25 3.55 0 1.35-.01 2.52-.02 3.5-.02.98-.02 1.78-.02 2.39 0 .98.01 2.1.03 3.36.01 1.24.03 2.11.04 2.58zm18.46-8.74h-11.71c.01 1.14.25 2.18.73 3.13.48.95 1.2 1.73 2.19 2.36.63.4 1.34.7 2.14.89.8.2 1.76.3 2.88.3.62 0 1.18-.02 1.69-.05.51-.03.83-.05.95-.06l-.29 2.14c-.09.01-.37.03-.86.06s-1.06.04-1.72.04c-1.73 0-3.23-.22-4.51-.67-1.28-.44-2.33-1.06-3.15-1.84-.7-.65-1.3-1.49-1.79-2.51-.49-1.02-.74-2.15-.74-3.39 0-1.22.18-2.33.55-3.31s.92-1.9 1.65-2.75c.64-.73 1.43-1.29 2.37-1.69.95-.4 1.92-.59 2.94-.59 1 0 1.9.15 2.67.45.78.3 1.45.76 2.02 1.37.64.69 1.12 1.53 1.46 2.53.35.98.52 2.19.53 3.59zm-2.51-1.8c-.17-1.33-.63-2.37-1.37-3.13-.74-.76-1.71-1.13-2.92-1.13s-2.22.38-3.03 1.15c-.81.77-1.37 1.8-1.68 3.11h9zm33.91 9.68l-2.52 1.3c-.04-.12-.39-.92-1.04-2.4s-1.5-3.38-2.56-5.71h-9.59c-1.14 2.5-2.02 4.44-2.63 5.81-.62 1.37-.96 2.14-1.02 2.3l-2.17-1.17c.28-.56 1.44-3.01 3.47-7.37 2.04-4.36 4.15-8.94 6.34-13.74h2.11c2.16 4.8 4.28 9.46 6.36 13.96 2.08 4.49 3.16 6.83 3.25 7.02zm-7.03-8.88c-.57-1.31-1.18-2.68-1.81-4.1-.64-1.43-1.3-2.92-2-4.48l-.06.01c-.54 1.18-1.2 2.63-1.96 4.35-.77 1.72-1.4 3.13-1.9 4.22l-.01.02h7.76l-.02-.02zm19.66-4.65c-.59.14-1.5.43-2.73.88s-2.64 1.05-4.23 1.8c0 .12 0 .66-.02 1.62-.01.96-.02 1.85-.02 2.68 0 1.27.01 2.77.04 4.51.03 1.74.04 2.7.04 2.9h-2.55c0-.18.01-.78.03-1.8.02-1.02.03-2.76.03-5.23 0-1 0-2.39-.02-4.18-.01-1.79-.03-3.48-.05-5.07h2.51v2.45l.02.02c1.22-.69 2.42-1.28 3.61-1.78s2.14-.85 2.85-1.03l.49 2.23zm12.2 12.39l-.29 2.04c-.08.01-.26.02-.56.03-.3.01-.55.02-.77.02-2.21 0-3.89-.46-5.02-1.37-1.13-.92-1.7-2.33-1.7-4.22 0-1.19.01-2.47.02-3.83.02-1.36.02-3.05.02-5.07h-2.72v-1.88h2.87v-3.81h2.35v3.81h5.8v1.88h-5.8c0 .23-.01.9-.02 2.01-.02 1.12-.02 1.94-.02 2.48v3.99c0 1.4.38 2.4 1.13 3.02.76.62 1.92.92 3.5.92.2 0 .43 0 .7-.01.26-.01.43-.01.51-.01zm13.02-2.72c0 .79-.19 1.5-.58 2.12-.39.62-.9 1.13-1.52 1.51-.66.41-1.44.72-2.34.93-.9.21-1.9.31-2.99.31-.53 0-1.08-.02-1.65-.07-.57-.05-.89-.08-.96-.09l-.1-2.11c.1.01.47.04 1.13.09.65.05 1.3.07 1.95.07.38 0 .86-.03 1.46-.1.59-.06 1.09-.18 1.47-.35.54-.24.94-.52 1.2-.87s.39-.76.39-1.24c0-.44-.11-.8-.34-1.07-.23-.27-.54-.54-.94-.8-.43-.29-1.02-.6-1.77-.92-.75-.33-1.38-.64-1.89-.94-.72-.44-1.28-.96-1.66-1.56s-.57-1.3-.57-2.09c0-.79.22-1.51.66-2.14.44-.63 1.02-1.14 1.76-1.53.64-.34 1.34-.57 2.12-.68s1.52-.17 2.25-.17c.66 0 1.2.01 1.62.03.42.02.67.03.73.03l.18 2.14c-.08 0-.41-.02-1-.06-.59-.04-1.24-.06-1.94-.06-.5 0-.97.04-1.42.13-.45.09-.83.21-1.14.37-.46.24-.8.52-1 .85-.2.33-.3.65-.3.97 0 .43.14.8.42 1.11.28.31.61.57.99.79.44.26 1.05.56 1.82.92.77.35 1.33.64 1.67.85.76.47 1.33 1 1.73 1.58.36.57.56 1.26.56 2.05zm24.11-4.45c0 2.66 0 4.83-.02 6.5s-.02 2.57-.02 2.7c-.11.01-.61.05-1.51.12-.9.07-2.05.1-3.47.1-.88 0-1.78-.08-2.67-.24-.9-.16-1.67-.39-2.32-.69-.86-.4-1.56-.94-2.1-1.63-.53-.69-.8-1.51-.8-2.48 0-1.02.32-1.9.95-2.64.63-.75 1.51-1.35 2.63-1.81.7-.29 1.64-.55 2.81-.78 1.17-.23 2.51-.4 4.01-.52-.06-.84-.28-1.52-.63-2.06-.36-.53-.88-.94-1.57-1.22-.47-.19-1-.33-1.59-.41-.58-.08-1.26-.12-2.04-.12-.49 0-.9.01-1.24.03-.34.02-.8.05-1.38.08l.26-2.14.96-.06c.48-.03 1.14-.04 1.97-.04 1.27 0 2.41.13 3.41.4 1 .26 1.83.69 2.49 1.28.62.56 1.08 1.25 1.39 2.07.32.81.48 2 .48 3.56zm-2.48 3.87v-1.38c0-.56 0-1.2-.02-1.93-.47.02-1.31.12-2.49.28-1.19.17-2.19.41-3 .72-.6.23-1.14.56-1.61 1.01-.47.45-.7 1.01-.7 1.67 0 .73.2 1.32.6 1.76.4.45.95.79 1.64 1.02.53.18 1.12.31 1.76.39.64.08 1.32.12 2.03.12.22 0 .48-.01.79-.02l.99-.03c0-.08 0-.43.01-1.06v-2.55zm21.7 5.3h-2.56c.01-.3.02-1.29.04-2.98.02-1.68.02-2.72.02-3.12 0-.56 0-1.38-.01-2.47-.01-1.09-.01-1.89-.02-2.39-.03-1.23-.27-2.12-.71-2.65-.44-.53-1.21-.8-2.3-.8-.66 0-1.47.19-2.44.58-.97.39-1.95.88-2.95 1.48 0 .12 0 .76-.02 1.91-.01 1.16-.02 2.22-.02 3.17 0 1.24.01 2.75.04 4.5.03 1.76.04 2.68.04 2.77h-2.56c0-.07.01-.73.03-1.97.02-1.24.03-3.08.03-5.53 0-1.13 0-2.44-.01-3.96-.01-1.51-.02-3.12-.06-4.83h2.53l-.02 1.85.02.03c1.51-.86 2.77-1.46 3.78-1.79 1.01-.34 1.85-.51 2.52-.51 1.38 0 2.49.43 3.33 1.3.84.86 1.25 2.05 1.25 3.55 0 1.35-.01 2.52-.02 3.5-.02.98-.02 1.78-.02 2.39 0 .98.01 2.19.04 3.66.04 1.46.05 2.23.05 2.31zm18.29.24c-.06 0-.27 0-.61.01-.35.01-.62.01-.83.01-2.04 0-3.64-.09-4.79-.27-1.15-.18-2.28-.53-3.38-1.05-1.44-.69-2.53-1.6-3.27-2.73-.74-1.14-1.12-2.4-1.12-3.79 0-1.63.42-3.07 1.25-4.33.83-1.26 2.03-2.24 3.6-2.95.92-.43 1.97-.75 3.16-.97 1.19-.22 2.35-.33 3.5-.33l-.05-7.41h2.56c0 .21-.01 1.72-.03 4.5-.02 2.79-.03 5.61-.03 8.47 0 2.26.01 4.31.02 6.14-.01 1.81.01 3.38.02 4.7zm-2.51-11.3v-2.97c-1.08 0-2.1.09-3.05.27-.96.18-1.77.43-2.45.74-1.08.49-1.92 1.2-2.51 2.11-.59.92-.89 1.99-.89 3.22 0 1.1.29 2.05.86 2.84.57.79 1.29 1.41 2.14 1.86.75.4 1.58.69 2.52.89.93.2 1.91.3 2.94.3h.42c0-.1.01-.9.02-2.4s0-3.78 0-6.86zm35.88 11.06h-2.67c.01-.64.02-1.83.04-3.56s.02-3.89.02-6.48c-.16 0-1.12 0-2.88-.01-1.76 0-3.08-.01-3.97-.01-1.07 0-2.35 0-3.85.01s-2.31.01-2.44.01c0 2.98.01 5.24.02 6.77.02 1.53.03 2.62.04 3.27h-2.67c.01-.64.03-1.78.05-3.43.02-1.64.03-4.41.03-8.32 0-1.18-.01-2.62-.02-4.31-.02-1.69-.04-3.52-.06-5.49h2.67c0 1.63-.01 3.23-.03 4.8-.02 1.57-.03 3.07-.03 4.48.13 0 .83 0 2.11.01 1.28.01 2.67.01 4.19.01 1.17 0 2.57 0 4.21-.01 1.64-.01 2.52-.01 2.62-.01 0-1.42-.01-2.91-.03-4.47-.02-1.56-.03-3.17-.03-4.81h2.67c-.02 1.62-.04 3.49-.06 5.62-.02 2.12-.02 3.86-.02 5.19 0 3.16.01 5.57.03 7.25.03 1.68.05 2.84.06 3.49zm20.08 0h-2.48v-1.87l-.02-.01c-.75.49-1.7 1-2.83 1.52-1.13.52-2.24.78-3.33.78-1.49 0-2.66-.44-3.5-1.32-.84-.88-1.26-2.11-1.26-3.7 0-.86.01-1.88.02-3.07.02-1.18.03-2.05.03-2.58 0-.98-.01-2.18-.04-3.61-.03-1.43-.04-2.24-.04-2.42h2.56c0 .14-.01.91-.03 2.32-.02 1.4-.03 2.52-.03 3.36 0 .74.01 1.66.02 2.77.01 1.1.02 1.89.02 2.35.02 1.27.24 2.19.66 2.78.42.59 1.1.89 2.04.89.96 0 2.02-.26 3.17-.77 1.15-.52 1.99-.97 2.53-1.35 0-.13.01-.72.02-1.78s.02-2.37.02-3.95c0-1.13-.01-2.47-.04-4.05-.03-1.57-.04-2.43-.04-2.57h2.56c0 .18-.01.79-.03 1.81-.02 1.02-.03 2.77-.03 5.24 0 1.38.01 2.6.02 3.64 0 1.04.01 2.91.03 5.59zm29.15 0h-2.56c.01-.12.03-.87.04-2.25.02-1.38.03-2.69.03-3.91 0-.48 0-1.27-.01-2.37s-.01-1.92-.02-2.47c-.03-1.29-.29-2.18-.77-2.67-.48-.49-1.22-.74-2.22-.74-.6 0-1.3.15-2.12.44-.81.29-1.73.75-2.76 1.36 0 .05 0 .16.01.32 0 .16.01.37.01.63 0 .87-.01 1.75-.02 2.64-.01.9-.02 1.75-.02 2.56 0 1.78.01 3.27.04 4.48.03 1.21.04 1.87.04 1.98h-2.56c0-.12.01-.76.03-1.94.02-1.18.03-2.57.03-4.18 0-.54 0-1.35-.01-2.44s-.01-1.89-.02-2.4c-.01-.47-.05-.92-.13-1.35-.08-.43-.22-.79-.42-1.09-.22-.33-.52-.58-.87-.75-.36-.17-.86-.25-1.52-.25-.6 0-1.31.18-2.12.53-.81.35-1.74.86-2.78 1.52 0 .18-.01.86-.02 2.05-.01 1.18-.02 2.15-.02 2.9 0 1.27.01 2.81.04 4.59.03 1.78.04 2.73.04 2.84h-2.56c0-.08.01-.71.03-1.87.02-1.16.03-3.09.03-5.78 0-.88 0-2.06-.01-3.56-.01-1.49-.02-3.18-.06-5.07h2.53l-.02 1.85.02.02c.72-.51 1.63-1.02 2.73-1.53 1.09-.5 2.06-.76 2.91-.76 1.06 0 1.94.22 2.65.66.71.44 1.21 1 1.52 1.67h.03c1.24-.76 2.38-1.34 3.43-1.74 1.04-.4 1.93-.59 2.66-.59 1.49 0 2.65.43 3.49 1.3.84.86 1.25 2.03 1.25 3.5 0 1.14-.01 2.1-.02 2.87-.02.78-.02 1.6-.02 2.47 0 1.8.01 3.33.04 4.57.02 1.21.03 1.87.03 1.96zm17.09-9.17c0 2.66-.01 4.83-.02 6.5s-.02 2.57-.02 2.7c-.11.01-.61.05-1.51.12s-2.05.1-3.46.1c-.88 0-1.77-.08-2.67-.24s-1.67-.39-2.32-.69c-.86-.4-1.56-.94-2.1-1.63-.53-.69-.8-1.51-.8-2.48 0-1.02.32-1.9.95-2.64.63-.75 1.51-1.35 2.63-1.81.7-.29 1.64-.55 2.81-.78 1.17-.23 2.51-.4 4.01-.52-.06-.84-.28-1.52-.63-2.06-.36-.53-.88-.94-1.57-1.22-.47-.19-1-.33-1.59-.41-.58-.08-1.26-.12-2.04-.12-.48 0-.9.01-1.24.03-.34.02-.8.05-1.38.08l.26-2.14.96-.06c.48-.03 1.14-.04 1.97-.04 1.27 0 2.41.13 3.41.4 1 .26 1.83.69 2.49 1.28.62.56 1.08 1.25 1.39 2.07.31.81.47 2 .47 3.56zm-2.48 3.87v-1.38c0-.56 0-1.2-.02-1.93-.47.02-1.31.12-2.49.28-1.19.17-2.19.41-3 .72-.6.23-1.14.56-1.61 1.01-.47.45-.7 1.01-.7 1.67 0 .73.2 1.32.6 1.76.4.45.94.79 1.64 1.02.53.18 1.12.31 1.76.39.64.08 1.32.12 2.03.12.22 0 .48-.01.79-.02l.99-.03c0-.08 0-.43.01-1.06v-2.55zm21.7 5.3h-2.56c.01-.3.02-1.29.04-2.98.02-1.68.03-2.72.03-3.12 0-.56 0-1.38-.01-2.47-.01-1.09-.01-1.89-.02-2.39-.03-1.23-.27-2.12-.71-2.65-.44-.53-1.21-.8-2.3-.8-.66 0-1.47.19-2.44.58-.97.39-1.95.88-2.95 1.48 0 .12-.01.76-.02 1.91-.01 1.16-.02 2.22-.02 3.17 0 1.24.01 2.75.04 4.5.03 1.76.04 2.68.04 2.77h-2.56c0-.07.01-.73.03-1.97s.03-3.08.03-5.53c0-1.13 0-2.44-.01-3.96-.01-1.51-.02-3.12-.06-4.83h2.53l-.02 1.85.02.03c1.51-.86 2.77-1.46 3.78-1.79 1.01-.34 1.85-.51 2.52-.51 1.38 0 2.49.43 3.33 1.3.84.86 1.25 2.05 1.25 3.55 0 1.35-.01 2.52-.02 3.5-.02.98-.02 1.78-.02 2.39 0 .98.01 2.19.04 3.66.03 1.46.04 2.23.04 2.31zm8.71-19.41h-2.85v-2.77h2.85v2.77zm-.14 19.41h-2.56c.01-.17.03-1.23.04-3.17s.02-3.55.02-4.81c0-1.1 0-2.32-.01-3.64-.01-1.33-.02-2.88-.06-4.66h2.56c-.02 1.55-.04 2.99-.06 4.34-.02 1.35-.02 2.55-.02 3.6 0 2.5.01 4.51.04 6.02.03 1.5.05 2.27.05 2.32zm14.99-2l-.29 2.04c-.08.01-.26.02-.56.03-.3.01-.56.02-.77.02-2.21 0-3.89-.46-5.02-1.37-1.13-.92-1.7-2.33-1.7-4.22 0-1.19.01-2.47.02-3.83.02-1.36.03-3.05.03-5.07h-2.72v-1.88h2.87v-3.81h2.35v3.81h5.8v1.88h-5.8c0 .23-.01.9-.02 2.01-.02 1.12-.02 1.94-.02 2.48v3.99c0 1.4.38 2.4 1.14 3.02.76.62 1.92.92 3.5.92.2 0 .43 0 .7-.01.24-.01.42-.01.49-.01zm6.98-17.41h-2.85v-2.77h2.85v2.77zm-.14 19.41h-2.56c.01-.17.02-1.23.04-3.17.01-1.94.02-3.55.02-4.81 0-1.1 0-2.32-.01-3.64 0-1.33-.02-2.88-.05-4.66h2.56c-.02 1.55-.04 2.99-.06 4.34-.02 1.35-.02 2.55-.02 3.6 0 2.5.01 4.51.04 6.02.02 1.5.04 2.27.04 2.32zm18.72-8.74h-11.71c.01 1.14.25 2.18.73 3.13.48.95 1.21 1.73 2.19 2.36.63.4 1.34.7 2.14.89.8.2 1.76.3 2.88.3.62 0 1.18-.02 1.69-.05.51-.03.83-.05.95-.06l-.29 2.14c-.09.01-.37.03-.86.06-.48.03-1.06.04-1.71.04-1.73 0-3.23-.22-4.51-.67-1.28-.44-2.33-1.06-3.15-1.84-.7-.65-1.3-1.49-1.79-2.51-.49-1.02-.74-2.15-.74-3.39 0-1.22.18-2.33.55-3.31.37-.99.92-1.9 1.65-2.75.64-.73 1.43-1.29 2.37-1.69.94-.4 1.92-.59 2.94-.59 1.01 0 1.9.15 2.67.45.78.3 1.45.76 2.02 1.37.64.69 1.12 1.53 1.46 2.53.33.98.51 2.19.52 3.59zm-2.51-1.8c-.17-1.33-.63-2.37-1.37-3.13s-1.71-1.13-2.92-1.13-2.22.38-3.03 1.15c-.81.77-1.37 1.8-1.69 3.11h9.01zm15.7 5.82c0 .79-.19 1.5-.58 2.12s-.9 1.13-1.52 1.51c-.66.41-1.44.72-2.35.93-.9.21-1.9.31-2.99.31-.53 0-1.08-.02-1.64-.07-.57-.05-.89-.08-.96-.09l-.1-2.11c.1.01.47.04 1.13.09.65.05 1.3.07 1.95.07.38 0 .86-.03 1.46-.1.59-.06 1.09-.18 1.48-.35.54-.24.94-.52 1.2-.87.26-.34.39-.76.39-1.24 0-.44-.11-.8-.34-1.07-.23-.27-.54-.54-.94-.8-.43-.29-1.02-.6-1.77-.92-.75-.33-1.38-.64-1.89-.94-.72-.44-1.27-.96-1.66-1.56-.38-.6-.58-1.3-.58-2.09 0-.79.22-1.51.66-2.14.44-.63 1.02-1.14 1.76-1.53.64-.34 1.34-.57 2.12-.68.77-.11 1.52-.17 2.25-.17.66 0 1.2.01 1.62.03.42.02.66.03.73.03l.18 2.14c-.08 0-.41-.02-1-.06-.59-.04-1.24-.06-1.94-.06-.5 0-.97.04-1.42.13-.45.09-.83.21-1.14.37-.46.24-.8.52-1 .85-.2.33-.3.65-.3.97 0 .43.14.8.42 1.11.28.31.61.57.99.79.44.26 1.05.56 1.82.92.77.35 1.33.64 1.67.85.76.47 1.33 1 1.73 1.58.37.57.56 1.26.56 2.05z"/>
    <path fill-rule="evenodd" d="M81.37 132.49c9.64-.13 18.24 2.02 25.29 4.76 22.98 8.95 41.39 24.68 50.69 47.15 10.48 25.29 1.06 53.88-15.94 65.6l-15.46-3.33c.4-.44.48-.5.88-.93 2-1.86 6.34-6.71 8.11-9.19 7.19-10.08 13.25-26.8 8.03-43.34-5.92-18.77-19.75-31.37-37.63-38.33-6.24-2.43-16-5.01-24.93-3.45-4.61.8-8.8 1.51-12.58 3.09-19.11 8.03-32.89 28.03-43.5 44.77-3.59 5.95-7.19 11.91-10.79 17.86-4.51-1.74-9.03-3.49-13.54-5.24 3.21-6.94 7.29-13.75 11.15-20.24 12.09-20.34 24.37-40.28 44.82-52.27 4.86-2.85 10.61-4.68 16.9-6.07l8.5-.84zm65.51-72.93c3.45.33 12.85 3.79 17.62 9.76 1.35 1.69 2.54 4.22 3.24 6.43 3.58 11.43-3.23 20.67-8.75 24.76-2.85 2.11-4.33 2.99-9.23 3.69-13.58 1.95-34.51-11.8-27.8-30.24 2.99-8.23 13.09-13.12 15.82-13.81s5.66-.91 9.1-.59z" clip-rule="evenodd"/>
  </g>
</svg>
