<svg id="hi" xmlns="http://www.w3.org/2000/svg" viewBox="0 0 283.46 198.43"><defs><style>.cls-1{fill:#221f20;fill-rule:evenodd;}.cls-2{fill:#fff;}</style></defs><title>logo-huygens-ing</title><g id="spot"><path class="cls-1" d="M35.08,33.15c.26-1.07,2.73-1,3.2-.79C35.76,37.56,33,42.57,27.72,45c-.76-.24,1.79-3.21,1.89-4.45.14-1.6-2.31-3.19-2.77-4.1C26.18,35,38.38,35.73,35.08,33.15Z"/><path class="cls-1" d="M128.2,187.18c1.1,2.82,8.44-.33,8-4.72C134.61,179.53,127.28,182.27,128.2,187.18Z"/><path class="cls-1" d="M28.36,58.58a8.35,8.35,0,0,0-.9,3.69c.71,3.17,5.45,5.12,10.31,3.94-.74-3.73-2.35-6.2.14-9.44-4,1-5.43,1.88-8,1.17L28,57.65c2.42-2.88,4.18-5.53,6.51-7.46.47-.39,3.19,2.09,3.77,2,.22,0,2.09-1.55,1-1.95-1.9-.68-3.29-2.73-3.92-5.18-.44-1.71,2.89-4.44,3.58-5,3.6-.4,1.11,4.59,4.78,4.12,1-4.83,2.16-10.1,3.52-14.59-1.73-2.7-6,2.33-8.09.43-1.25-.88,4.74-6,7.86-5.55.85.12-1.62,3.76,2,2.16a9.69,9.69,0,0,1,1.15-2.28c-3.9-1.14,10.56-5.59,11-4.89,1,2-2.65,3.19-3.11,5.58,2-1.44,11.31-7.86,11.63-4.46,0,2.82-8.26,3.18-12.78,6.74a14,14,0,0,0-2.19,3.3c7.5-2.62,15.93-6.72,23.48-4.78,6.35-4.9,20.25-11.39,18.73-13.13-5.52,1.18-9.79,5.39-10.37,5.16,4.73-5.47,20-10.59,18.23-3.87,6.15-1.42,19.44-3.87,20.77-4.21C127.06,9.35,136,2.94,143,.43c2.08-.68,4.38-.57,5,.46,1.06,3.3-5.86,8-10.53,10.23,4.26.51,7.45,2.73,7.2,6.39-1,4.65-7,7.91-13.78,8.31-.07,1.32.87,2.76,1.6,2.92,1.12.25,5-1.22,6.59-1.17.55,0,.22,1.25-.06,1.41-1.42.8-4.36.27-5.13.94-1.06.93,1.79,2.67,2.42,4.44,5.19-3.76,7.15-6,10.84-9.52,1.3-1.23,1-6,.46-9.38.82.06-2.6-1.68-1.85-1.69,8,0,15.23-2.21,19.66-5.81,1.9,4.32,7.12,4.2,11.09,4.72-4,3.56-13.59,6.32-15.64,11.81-.19.51,1.69,1.62,2.43,1.55,3-1.59,3.92-4.33,5.62-4.8,1-.29,1.46.64,3.62,1.27,9-18.08,35.62-6.56,46.15,2.16.76-1.71,1.44-3.39,1.27-4.55-.26-1.82-3.44-3.2-4.82-3.91-2.27-1.17-1.41,1.75-3.56-1.16-1.08-3.12,6.36,1.68,9.07,2.91.3-1.66,1-3.63,2.65-3.71s4.94,2,5.31,3.37c-.08.47-1.61-.92-2.77-.57-.78.23-1.72,2.52-1.59,3.51,1.82,2.07,3,4.76,5.63,6.06.46.23.81-.68,1.5-.34,2.4,1.17,7.21,4.82,9.92,6,.66.3,1.4-1.56,2.19-1.82.48-1.78-5.25-2.75-2.58-4.42,3.92.07,8.1,3.67,7.2,5.1-3.15,2.47-8.54,4.44-13.38,3,3.11,2.48,4.52,5.65,5.88,5.24,3.35-1,8.08-2.43,10.5.11.94,1-.34,2.28-2.53,3-.57.26-1.81-.7-2.89-1.14-1.79-.72-3.48-1.05-3.46.11.46,3.39-1.75,2.86-1.63,5.9,1.75,1.61,3.13-.89,4.29-1.12s3.8.23,4.27,2.28c.48,1.63-5.31.45-2.31,3.87a17.29,17.29,0,0,1,11.66.11c2.54-2.16-4.77-4.78-3.35-6.26.23-.8,1.41-2.25,2.42-1.59,4.65,3,4.11,11.6.22,16.24-1,1.15-.68,3.68.05,5.36.88,1.06,4.57-1.22,6.19.26S257,78.15,257.37,78.54s.76.08,1.06.1c.76.05,9.24-12,9.79-12.17,1.15-.34,2.83-.16,2.65.23a103,103,0,0,0-9.21,12.89c1.15.43,4.14-.92,4,.79a6.22,6.22,0,0,1-2.86,4.94c-.87.47-1.72-.37-2.17.62,2.55,1.63,2.31,6.48,0,9.45-.6.77,1.38,1.14,2.77,1,6-11.84,27.57-1.38,17.42,4-.94.5-3.58,1.48-5.11.43-2.09-1-2.35-2.39-1.47-4.54,1.73-2.16,6.35,2.05,5.19-1.14-.33-.92-5.54-.34-6.92.68-4.35,3.22-7.15,10.19-9.72,15.22,1.6-.32,8.68-1.1,8.68-.08-1.38,3.15-4,6.38-7.38,7.52-.9,0,.81-4.1-2.13-5.08-5.64,5.27-11.93,9.89-17,15.74,12.65-2.24,16.46-8.27,17.65-7.08,1.81.86-2.44,2.88-2.48,5.51,15,13.87-12,30.72-23.67,35.41,1.85,1.65.52,7.53-1.92,7.53-.58-1-.83-2.76-1.29-3.36-3.29-4.26-15.4-5.49-16.13-2.56-1.26,3.34-2.31,11.73,0,12.56,3.41.34,7.42-2.51,9.35-4.36.35-.34,1.61-1.93,2.7-1.94-3.44,5.87-6.09,11.53-16.55,10.36-4.73-1.46-3.46-10.81-4.09-16.66h-4.79c-.43,3.84.7,9.22-1,11.81,2.11.44,3.85-2.66,4.89-1-2.92,3.2-8.77,8.65-9.78,8-6.19-3-11.54-6.87-13.34-14.17-1.27,1.68-9.41,6.36-7.68,6.7,1,.45,6.81-.68,8.42.11-.94,3.59-5.81,8.58-6.23,7.4-.62-5.6-4.85-8.77-10.53-9.49-.38,5.59-1.93,7.55.62,11.81-6.48.75-11.44,3-15.14,6.55-.93.89-1.83,3.1-2.55,2.9-6.16-3.54-12.43,3.39-14.4,3.15,2.85-7.18,11-15.14,20.89-10.23,1.27-4.66-2.62-8.21-.8-10.94-8.42,3.3-19.49,4.39-27,.71a14.82,14.82,0,0,1-8.47,6.81c0,1.85.92,3.87.31,5-4.93,1.72-6,1.16-8.64,2.61-4,2.18-6.72,6.52-7.48,5.49,1.4-7.92,9.46-7.84,8.3-18.33-5.9,2.12-12.92-.7-16.76.79q0,2.36-.07,4.72c2.88.18,5.33.78,7.26.18s3.92-2.39,4.85-1.71c-3,10.88-21.4,6.52-30.56,8.61-.36-.3-.83-.54-.54-.82,3.22-3.15,7.79-6.92,5.54-13.35-3.07-.68-2.87,1.92-4.82,2.36A11.89,11.89,0,0,0,72,174.81c-1.5,8.4-14.17,11.49-23.79,10.41-1-.11-.92-.68-1.07-1,6.48-.43,11.63-2.2,15.24-5.51.26-3.88-2.28-7.3-3.62-8.87-6.75,5.72-24.08,9.32-23.27-6.09,2.34-1.91,11.77-4.84,13.56,0-.22,2.17-3,1.8-4,3.15,3,2.15,8.68,1.5,10-1.76-2.22-5-12.58-9.45-15.16-9.64-8.76-.65-18.55,2.81-22.45,7.25-.28.31-.83-.13-1,.21,4-6,10-8.07,16.9-10.23-6.63-3.08-9.41-7.45-10.21-7.63-5.66-1.21-9-8.65-3.35-15.49-9.35-4.1-12.4-17.16-8.79-28C9,101.17,6.81,100.95,7,98.47c1.5-9,8.92-13.9,11.8-17.43C13,79.91,5.66,78,2,81.22c-.43.38.57,2.19.23,2.7s-1.57.43-2.22.39c-.39-9.53,18.3-7.36,23.49-6.45.58.1,2.42-2.39,4.57-3.78-2.72-3.44-5-5.07-4.64-9.44.09-1.13,2.06-3.75,3.87-6.19Zm100.71-49c1.84.11,5.25.57,5.94.34,4.35-1.43,9.27-4.89,9.4-7.29C144.24.79,134.2,5.37,129.07,9.54Zm-14.8,7.87c3.31-2,5.32-3.41,8.56-5.6a16.31,16.31,0,0,0-8.31,2.5C114.15,14.6,114.19,16.83,114.28,17.41Zm4.93-.47c1.9-.34,6.69-2.28,12.12-5.12-1.85-.23-5.43-.34-6,0C122.54,13.46,118.94,16.64,119.2,16.94Zm-5,4.41c0,3.22-2.69,9.16.62,11.8a37,37,0,0,1,10.6-3.09c-.81-1.37-1.16-3.46-2.14-4.47-.61-.81-2.34,1.41-4,1.59s-4.73-1-3.5-2.69c3.86-3.18,11.69-.61,13.42-1,2.92-.58,5.32-4.63,5.13-10.36C129.36,15,121.92,20,114.22,21.35Zm44.27.6c.81-.46.51-4.17,1.67-4,2.26.42,5.26.88,5.14,0-4.62-1-6-3-8.08-4.67C155.73,14.84,157.47,20.52,158.49,21.95Zm41.58,18.86c2.61-.91,4.87,2.4,6.38,0-1.58-2.36-.69-5,.5-7.14-3.2-.54-2.43,3.58-5.25,3.41-2.13-3.3-7-4-6.3-5.51a11.06,11.06,0,0,0,4.85-3.93c.24-.91,4.16,3.53,7.16,4.55,2.18.75,4.15-1.48,7.17-3C210.19,16,182.41,7.94,174,22.92c1.71,1.18,6.37,2,5.95,3-.39.77-2.83.39-3.46,1.25s-.23,3.19-.22,4.39c5-.18,6.11-2.91,8.83-3.93.86.11,5.35,3.53,8.69,5.51.94,1-2.41,2.46-2.52,3.37s.23,4.21.8,4.33c1,.2,2.54-2.51,4-3.53.72-.49,2.54.57,4.5.8C201.07,38.34,198.88,40.62,200.07,40.81ZM85.69,26.16C90,25,96.89,25.13,100.46,25c.7,0,5.36-2.28,6.57-2.89q.05-3.54.11-7.08c-1,.18-3.38.44-4.43,1.55C99.4,20.12,92.5,22.86,85.69,26.16Zm135.8,1.48c2,1.25,4.72,3,6.65.67-2.46-1.23-2.85-3.18-4.92-5.34C223.11,24.06,221.54,26,221.49,27.64Zm-139,1.94c.34.49,1.7,2.19,1.61,3.3,2.77-.8,8-2.73,9.52-3.87C89.09,28.44,85.11,27.76,82.46,29.58ZM54,32.76A53.34,53.34,0,0,0,51.88,45.4c6.76-1.34,16.27-.45,21.94-2.82,1.36-.57,1.9-3.6,2.29-5.26C74,38,70,40.13,68.5,37.87c-.64-3.29,3.51-6.13,5.12-8.52C65.32,28.44,60.31,30.26,54,32.76Zm30.47,6.68c4.17-3,9-5.4,12.89-8.66-.5-.12-1.21-1.67-1.91-1.36C92.5,30.72,87.68,33.61,84.76,35,84.31,35.27,84.25,38.57,84.43,39.45Zm69.46-4.72a6.77,6.77,0,0,0,3.91,1.68c.92.15,7.19-4.38,8-6.95-1.27-.68-1.91-2.07-2.77-1.71-2.32,1-3.34,4.68-4.73,6.26C157.32,35.09,156.3,31.4,153.89,34.73Zm67.72,3.94a20.87,20.87,0,0,0,2.49-6.3,3.54,3.54,0,0,0-3.18-.79C219.85,32.85,219.09,38.51,221.61,38.66Zm-8.76-.79c.21,1.61,4.25,4.11,5.52,3.93a31.6,31.6,0,0,0-2.25-9.44A6.57,6.57,0,0,0,212.85,37.87Zm-96.93-2.94c0,1.31.44,2.42.42,3.73,4.85,1,11.15.86,15.15-1.11-2-2.39-4.1-5.32-5-5.47C123.61,31.6,119.58,33.65,115.92,34.93Zm-17.2,9.24c2.07-2.36,5.18-9.15,1.28-10.72C97.1,36,97,40,98.71,44.17Zm81.34,0c1.43-1.49.66-5.2.92-7.87-1.65-.46-2.55-1.65-4-2.36a19.28,19.28,0,0,0,.16,7.48A5.91,5.91,0,0,0,180.06,44.17Zm50.2,2.15c1.73,1,5.54-1.71,6-3.07a8.82,8.82,0,0,0-7.15-8.65C225.41,39.48,227.2,43.44,230.26,46.32ZM90.88,37.78c-.69-.34-6.43,3-6.46,3.76C84.54,44,90.85,38.54,90.88,37.78Zm-35.31,13A5.28,5.28,0,0,0,59.38,53c1.73.12,6.66-2.81,7.5-4.21C66.65,48,55.69,49.73,55.57,50.76Zm195,5.35a9.77,9.77,0,0,1,4.5,3.76,12.37,12.37,0,0,0,2.65-3.64C257.52,54.66,251.29,53.1,250.56,56.11ZM25.81,78.65c2.17.31,5.07,1.48,7.38,1.94C34,80,34.63,78.28,36,76.43c-2.59-.86-5.25-1.65-5.69-1.81C28.54,74,27.31,76.26,25.81,78.65ZM11.52,100c1.25-2.49,2.32-5.42,4.83-8a1.07,1.07,0,0,1,1.5-.23c-.92,2.5-4.15,6.72-2.88,8,4.61-.68,10.44-5,12.59-8.07.82-1.19,0-2.46.35-3.85s1.83-2.57,1.83-4c-2.32-.84-7.21-2.36-8-2.05C18.19,83.32,1.92,100.62,11.52,100Zm20.87-5.45c-5.19,3.19-10.5,7.74-18.11,7.52-.81,6.15-.46,12.41,1,16.05,6.69-3,7-7.63,14-6.15C33,109.39,33.07,102.91,32.38,94.59Zm216.89,12.54c0,1.37-.43,2.95-.32,4.31a12.21,12.21,0,0,0,10.62-8.54C256.68,104.61,252.85,107.25,249.27,107.13ZM32.73,119.53c2,.1,4.47,0,5.42-.91.07-2.39-.41-4.49-2.89-5.69C35.32,116.4,32.77,116.9,32.73,119.53Zm-16,1.37c.83,2.81,2.88,4.44,5.54,5.81,2.08-3.42,6.49-4.09,4.36-7.77C22.23,117.36,20.27,119.07,16.69,120.89Zm6.91,6.81c4.7,1.9,11.08,6.61,17.14,4.61-2.07-1.87-4.36-3.51-4.68-7.08C30.89,124.36,26.11,124.22,23.6,127.71Zm225.23,12c3.29-.18,8.46.16,8.3-.57-.46-2.39-1.5-3.19-2.65-6.26-.72-1.92.46-4.78-3.17-2.9C249.46,132.09,249,135.85,248.83,139.68ZM22.11,142.76c-.69-5,1-7.63,2.68-10.44-1.52-.6-2.64-1.57-3.37-1.86C17.73,134.44,18,141,22.11,142.76Zm221.18,13.66c.72-5.08,3.31-18.9,3.12-23.8,0-.63-1.59.64-1.87.14-.9,8.4-3,18.31-3.21,24C241.31,157.4,242.5,156.35,243.29,156.42ZM32.59,143.84c1.9.09,5.3-1.88,6.42-2.87-1.58-1.83-2.13-3.68-6.17-6.07.89,4,.25,5.27-1.45,6.26-.28.16-1.27-.15-2.89-.56s-1.6-3.43-1.42-4.57,1.79-1.42,1.56-1.71-1.48-.44-1.48-.44c-1.43.4-1.84,3.63-1.67,4.91C26.34,141.49,27.63,143.61,32.59,143.84Zm14.34,4.73a60.49,60.49,0,0,1-6.64-5.67c-.95.38-3.4,1.88-5,2.22C38.87,146.2,42,148.11,46.92,148.56Zm201.22-3.65a77.67,77.67,0,0,0-1.15,9.33,16.28,16.28,0,0,0,8.89-10.13C253.1,144.23,248.71,143.89,248.14,144.92ZM70.55,164.58c.14,3.23.29,6.44,1.46,8.66a10.07,10.07,0,0,0,5.67-5.51c1,1.13,3.2,1.7,5.24,1.78a3.68,3.68,0,0,0,.58-3.42c-.83-1.42-3.91-2.53-5.08-3.53a3.86,3.86,0,0,1-1.39,3C75.76,166.09,72.42,165.18,70.55,164.58Zm101.33,2.09c.23,1.59,1.38,3,2.19,4.1,2.31-.57,4.62-5.12,3.34-5.4C175.42,165.25,172.45,165.75,171.87,166.67Zm-40,3.42c2.23,4.82,10,9.27,16.88,7-2.24-2.47-7.8-3.57-10.8-4.48.42-2.07,3.92-3.3,3.58-4.9-2.17-.55-5.21-1.42-6.23-1.37C134.57,166.36,132.3,169.05,131.87,170.09Zm61.44-2.36c.75,4.17,3.63,6.29,7.05,7.87.93-2.67.84-6.29,1.27-9C198.93,166.76,194.84,166.33,193.31,167.73Zm-71.19,14.17c2.73-2.06,2.68-6.9,2.57-11.81h-4.79C121.19,173.51,122.5,179.21,122.12,181.89Zm-33.2,4.35a18.47,18.47,0,0,1,6-1.2c.52-5.68-.22-9.49-.73-14.17h-3C90.88,175.63,90.41,182.68,88.92,186.25Zm7.79-11.44c4.21-.4,6.85-.2,12.75-.4C109.33,169.71,96.08,169.34,96.71,174.81Zm54.51,1.76c1.3-.3,4.08-.87,5.12-1.79s.35-3.57.24-5.27C154.34,171.22,150.53,176.45,151.22,176.57ZM75.59,32.08s-3.58,2.73-2.77,3.3S75.71,35,75.71,35A3.44,3.44,0,0,0,75.59,32.08ZM97.22,176.8s8.54-1.14,12.46-.91c0,0,.46,1.94,0,1.94s-7.73-.34-12.23-.11C97.46,177.71,97.22,177.94,97.22,176.8Z"/></g><g id="txt"><path class="cls-2" d="M73.8,101.68l-6.3-2.46v-19a5.16,5.16,0,0,0-1.45-3.6,4.2,4.2,0,0,0-3.28-1.5c-.86,0-3.62.13-8.19.39v26.13h-6.3V61.59l6.3-2.46V69.33C61,69,62.47,68.94,63,68.94a10.12,10.12,0,0,1,7.77,3.49,11.37,11.37,0,0,1,3.07,7.83Z"/><path class="cls-2" d="M88.15,102.3h0a10.11,10.11,0,0,1-7.77-3.48A11.37,11.37,0,0,1,77.27,91V72.84l6.31-3.28V91A5.18,5.18,0,0,0,85,94.57a4.17,4.17,0,0,0,3.28,1.51h.41l9.06-.51v-26h6.3v32Z"/><path class="cls-2" d="M144.78,102.6v1.64a3.93,3.93,0,0,0,1.38,3.19,5.53,5.53,0,0,0,3.78,1.28h3.19a5,5,0,0,0,3.68-1.49,4.85,4.85,0,0,0,1.51-3.62v-2.47a11.49,11.49,0,0,1-5.19,1.16h-3.81A11.22,11.22,0,0,1,141.2,99a10.85,10.85,0,0,1-3.38-8V80.26A11.21,11.21,0,0,1,141,72.37a10.41,10.41,0,0,1,7.87-3.43h.56l15.22.7v34a10.85,10.85,0,0,1-3.38,8,11.21,11.21,0,0,1-8.12,3.31h-3.19a11.7,11.7,0,0,1-8.07-3,9.88,9.88,0,0,1-3.36-6.8Zm4.14-27.44a4.38,4.38,0,0,0-3.34,1.49,5,5,0,0,0-1.46,3.59V91a4.88,4.88,0,0,0,1.5,3.63,5,5,0,0,0,3.69,1.49h3.81a5,5,0,0,0,3.68-1.49A4.8,4.8,0,0,0,158.32,91V75.68Z"/><path class="cls-2" d="M179.16,102.3h0a10.42,10.42,0,0,1-7.88-3.43A11.22,11.22,0,0,1,168.09,91V80.26a10.85,10.85,0,0,1,3.38-8,11.22,11.22,0,0,1,8.11-3.31h3.81a11.25,11.25,0,0,1,8.12,3.31,10.86,10.86,0,0,1,3.37,8v9.43h-20.5V91a5.07,5.07,0,0,0,1.46,3.6,4.36,4.36,0,0,0,3.39,1.5h.3l14.08-.75-2.12,6.35Zm-4.77-18.83h14.2V80.26a4.82,4.82,0,0,0-1.5-3.61,5,5,0,0,0-3.69-1.48h-3.81a5,5,0,0,0-3.68,1.49,4.81,4.81,0,0,0-1.51,3.61Z"/><path class="cls-2" d="M225.17,99.22l-6.3,2.46V80.26a5.14,5.14,0,0,0-1.45-3.6,4.19,4.19,0,0,0-3.28-1.5h-.41l-9.06.51v26h-6.3v-32l15.88-.7h0a10.16,10.16,0,0,1,7.85,3.48,11.38,11.38,0,0,1,3.07,7.83Z"/><path class="cls-2" d="M240.75,102.3c-.15,0-.46,0-11.39-.63l-1.76-.1,1.83-6.14,11.37.65a3.43,3.43,0,0,0,2.49-.95,3.24,3.24,0,0,0,1-2.52c0-2.14-.8-3.29-2.69-3.85l-8-1.72c-2.42-1-5.31-3.41-5.31-9.35a8.34,8.34,0,0,1,2.37-6.06,9.74,9.74,0,0,1,7.25-2.72c.13,0,.31,0,9.66.62l1.75,6.34-11.46-.74c-3,0-3.26,1.22-3.26,2.57,0,1.14.17,2.65,1,3.34.38.34,1.29.86,3.71,1.08a15.27,15.27,0,0,1,7.57,2.28c2.48,1.77,3.73,4.53,3.73,8.22a9.16,9.16,0,0,1-2.93,7A9.82,9.82,0,0,1,240.75,102.3Z"/><polygon class="cls-2" points="54.58 141.06 48.28 141.06 48.28 111.39 54.58 108.93 54.58 141.06"/><path class="cls-2" d="M84.68,139.42l-6.3,1.64V119.63A5.16,5.16,0,0,0,76.94,116a4.2,4.2,0,0,0-3.28-1.5h-.41l-9.06.51v26h-6.3V109l15.88-.7h0a10.15,10.15,0,0,1,7.85,3.48,11.37,11.37,0,0,1,3.07,7.83Z"/><path class="cls-2" d="M134.35,69.56v38.18l-3.95,1.54v6.87l-6.31,2.46V111l3.95-1.54v-7.58l-9.57.41h0a10.14,10.14,0,0,1-7.85-3.49A11.38,11.38,0,0,1,107.55,91V69.56l6.3,2.46V91a5.22,5.22,0,0,0,1.45,3.61,4.17,4.17,0,0,0,3.27,1.5H119l9-.41V69.56Z"/><path class="cls-2" d="M94.9,142v1.64a3.93,3.93,0,0,0,1.38,3.19,5.54,5.54,0,0,0,3.78,1.28h3.19a5,5,0,0,0,3.68-1.49,4.83,4.83,0,0,0,1.51-3.62v-2.48a11.5,11.5,0,0,1-5.19,1.16H99.44a11.22,11.22,0,0,1-8.12-3.31,10.85,10.85,0,0,1-3.38-8V119.63a11.21,11.21,0,0,1,3.15-7.88A10.42,10.42,0,0,1,99,108.31h.56l15.22.7v34a10.87,10.87,0,0,1-3.38,8,11.22,11.22,0,0,1-8.12,3.3h-3.19a11.7,11.7,0,0,1-8.07-3,9.88,9.88,0,0,1-3.36-6.8ZM99,114.53A4.39,4.39,0,0,0,95.7,116a5,5,0,0,0-1.46,3.6v10.72A4.89,4.89,0,0,0,95.75,134a5,5,0,0,0,3.69,1.48h3.81a5,5,0,0,0,3.68-1.48,4.8,4.8,0,0,0,1.51-3.59V115.05Z"/></g></svg>