<?xml version="1.0" encoding="utf-8"?>
<!-- Generator: Adobe Illustrator 20.1.0, SVG Export Plug-In . SVG Version: 6.00 Build 0)  -->
<svg version="1.1" id="Layer_1" xmlns="http://www.w3.org/2000/svg" xmlns:xlink="http://www.w3.org/1999/xlink" x="0px" y="0px"
	 viewBox="0 0 1970.6 373.6" style="enable-background:new 0 0 1970.6 373.6;" xml:space="preserve">
<style type="text/css">
	.st0{fill:#269075;stroke:#000000;stroke-miterlimit:10;}
	.st1{fill:#FFFFFF;}
</style>
<rect x="-767.3" y="-518.8" class="st0" width="3273" height="1635"/>
<title>logo_timbuctoo</title>
<path class="st1" d="M227.8,373.6c53.9-31.6,92-121,90.7-204.4c-0.3-25.7-4.6-51.2-12.8-75.5c0,0-58.3-21.2-129.6-20.1
	c-11,0.2-21.9,1.1-32.8,2.6l61.8,217.6c19-5.2,36.7-15.5,52.8-20.2c-6.5,17.4-21.9,43.7-41.9,58.4L227.8,373.6z M213,213.2
	c6.6-8.9,22.4-21.8,36.5-18.1s22.4,22.9,24.1,34C255,218.9,234.2,213.4,213,213.2z"/>
<path class="st1" d="M90.3,0C36.6,31.5-1.3,120.5,0,203.5c0.3,25.6,4.6,50.9,12.7,75.2c0,0,58,21.1,129.1,20
	c10.9-0.2,21.8-1.1,32.6-2.6L112.9,79.4C94,84.6,76.3,94.8,60.3,99.6c6.4-17.3,21.8-43.5,41.8-58.2L90.3,0z M105,159.7
	c-6.6,8.9-22.3,21.6-36.4,18s-22.3-22.7-24-33.8C63.2,154,83.9,159.4,105,159.7L105,159.7z"/>
<g>
	<path class="st1" d="M557.7,101.1h-74.2v196.3h-7.6V101.1h-74.2v-7.6h156V101.1z"/>
	<path class="st1" d="M606.5,297.4H599V93.5h7.6V297.4z"/>
	<path class="st1" d="M678.9,93.5l83.9,192.8l84.1-192.8H858v203.9h-7.6V104.7l-84.6,192.7h-6l-84.1-191.7v191.7h-7.6V93.5H678.9z"
		/>
	<path class="st1" d="M914,297.4V93.5h53.6c21.9,0,38.5,4.5,49.8,13.4c11.2,8.9,16.9,21.9,16.9,38.9c0,12.3-3.1,22.5-9.4,30.7
		c-6.3,8.1-15.1,13.3-26.5,15.5c12.9,1.7,23.6,7.3,32.2,16.7c8.6,9.5,12.9,20.3,12.9,32.6c0,17.4-5.6,31.1-16.9,41.1
		c-11.2,10-26.9,15.1-47,15.1H914z M921.5,189.1h48.9c18.6,0,32.6-3.6,42-10.7c9.4-7.1,14.1-18.2,14.1-33.3
		c0-28.9-19.1-43.6-57.3-44.1h-47.7V189.1z M921.5,196.7v93.1h58.9c17.3,0,30.8-4.3,40.7-12.8c9.8-8.5,14.8-20.4,14.8-35.5
		c0-12.9-4.8-23.5-14.3-31.9c-9.5-8.4-22.3-12.7-38.2-13H921.5z"/>
	<path class="st1" d="M1224.1,93.5v138c0,21.6-6.3,38.4-18.8,50.5c-12.5,12.1-29.5,18.1-50.8,18.1c-21.4,0-38.3-6-50.8-18.1
		c-12.5-12.1-18.8-28.7-18.9-49.9V93.5h7.6v137.8c0,18.9,5.7,33.8,17,44.8c11.3,11,26.4,16.5,45.2,16.5c18.8,0,33.8-5.5,45.1-16.5
		c11.3-11,16.9-26,16.9-44.9V93.5H1224.1z"/>
	<path class="st1" d="M1416.6,234.9c-2,21-9.2,37.1-21.7,48.4c-12.5,11.2-29.5,16.9-51,16.9c-14.5,0-27.3-3.7-38.4-11
		c-11.2-7.3-19.8-17.7-26-31.2c-6.2-13.5-9.3-28.9-9.4-46.3v-31.5c0-17.4,3-32.9,9.1-46.6c6.1-13.7,14.7-24.2,26-31.7
		c11.2-7.5,24.2-11.2,38.7-11.2c21.3,0,38.2,5.6,50.8,16.8c12.6,11.2,19.9,27.3,21.8,48.2h-7.6c-2.1-18.8-8.7-33-19.6-42.8
		c-10.9-9.8-26.1-14.6-45.5-14.6c-19.8,0-35.8,7.5-48,22.4c-12.2,14.9-18.3,35-18.3,60.1v30c0,16.1,2.7,30.3,8.1,42.6
		c5.4,12.4,13.2,22,23.3,28.9c10.1,6.9,21.7,10.4,34.8,10.4c19.5,0,34.7-4.8,45.7-14.4c11-9.6,17.4-24,19.4-43.3H1416.6z"/>
	<path class="st1" d="M1595.4,101.1h-74.2v196.3h-7.6V101.1h-74.2v-7.6h156V101.1z"/>
	<path class="st1" d="M1771.5,210.7c0,17.6-3.2,33.3-9.5,46.8c-6.3,13.6-15.3,24.1-27,31.5c-11.7,7.4-25.1,11.1-40.3,11.1
		c-23,0-41.5-8.2-55.7-24.5c-14.2-16.3-21.3-38.4-21.3-66.1v-29.4c0-17.5,3.2-33.1,9.5-46.8c6.3-13.6,15.3-24.2,27-31.6
		c11.7-7.4,25.1-11.1,40.3-11.1c15.2,0,28.7,3.7,40.4,11.1c11.7,7.4,20.7,18,27.1,31.6c6.3,13.7,9.5,29.2,9.5,46.7V210.7z
		 M1764,179.9c0-24.6-6.3-44.4-18.8-59.3c-12.5-14.9-29.4-22.3-50.7-22.3c-21,0-37.8,7.4-50.3,22.2c-12.5,14.8-18.8,34.9-18.8,60.4
		v29.8c0,16.2,2.8,30.6,8.5,43.1c5.6,12.5,13.7,22.1,24.2,28.8c10.5,6.7,22.7,10.1,36.7,10.1c21.3,0,38.1-7.4,50.5-22.3
		c12.4-14.8,18.6-35.1,18.6-60.8V179.9z"/>
	<path class="st1" d="M1962.5,210.7c0,17.6-3.2,33.3-9.5,46.8c-6.3,13.6-15.3,24.1-27,31.5c-11.7,7.4-25.1,11.1-40.3,11.1
		c-23,0-41.5-8.2-55.7-24.5c-14.2-16.3-21.3-38.4-21.3-66.1v-29.4c0-17.5,3.2-33.1,9.5-46.8c6.3-13.6,15.3-24.2,27-31.6
		c11.7-7.4,25.1-11.1,40.3-11.1c15.2,0,28.7,3.7,40.4,11.1c11.7,7.4,20.7,18,27.1,31.6c6.3,13.7,9.5,29.2,9.5,46.7V210.7z
		 M1954.9,179.9c0-24.6-6.3-44.4-18.8-59.3c-12.5-14.9-29.4-22.3-50.7-22.3c-21,0-37.8,7.4-50.3,22.2
		c-12.5,14.8-18.8,34.9-18.8,60.4v29.8c0,16.2,2.8,30.6,8.5,43.1c5.6,12.5,13.7,22.1,24.2,28.8c10.5,6.7,22.7,10.1,36.7,10.1
		c21.3,0,38.1-7.4,50.5-22.3c12.4-14.8,18.6-35.1,18.6-60.8V179.9z"/>
</g>
</svg>
