<?xml version="1.0" encoding="utf-8"?>
<!-- Generator: Adobe Illustrator 20.1.0, SVG Export Plug-In . SVG Version: 6.00 Build 0)  -->
<svg version="1.1" id="Layer_1" xmlns="http://www.w3.org/2000/svg" xmlns:xlink="http://www.w3.org/1999/xlink" x="0px" y="0px"
	 viewBox="0 0 900 250" style="enable-background:new 0 0 900 250;" xml:space="preserve">
<style type="text/css">
	.st0{fill:#468DCB;}
	.st1{fill:#F26C50;}
</style>
<g>
	<path class="st0" d="M884.4,142.2V91.8h-57.9v50.4h-15.6V29.9h15.6v48.7h57.9V29.9H900v112.3H884.4z M792.5,142.2h-16L766.2,115
		h-52.8l-10.2,27.2h-16l45-112.3h15.3L792.5,142.2z M718.2,102.6h43.5L739.9,44L718.2,102.6L718.2,102.6z M668.1,142.2h-15.6V29.9
		h15.6V142.2z M568.1,142.2h-15.6V29.9h29.4c6.1,0,11.8,0.7,17.1,2c5.3,1.4,9.9,3.4,13.8,6c4,2.6,7.1,6,9.3,10
		c2.3,4,3.4,8.6,3.4,13.8c0,7.8-2.5,14.5-7.5,20.2s-12.1,9.9-21.1,12.5l39.9,47.9h-19.2L580.7,97c-0.6,0-1.4,0-2.5,0.1
		s-2.3,0.1-3.6,0.1h-6.5L568.1,142.2L568.1,142.2z M609.9,61.9c0-3.5-0.8-6.5-2.3-9s-3.6-4.5-6.2-6.1s-5.6-2.6-9-3.4
		c-3.4-0.7-7-1.1-10.7-1.1h-13.6v42.3h7.8c4.8,0,9.2-0.4,13.3-1.3s7.7-2.3,10.8-4.1s5.5-4.2,7.2-7.1C609,69.2,609.9,65.8,609.9,61.9
		z M534.2,142.2h-16L507.8,115H455l-10.2,27.2h-16l45-112.3h15.3L534.2,142.2z M459.8,102.6h43.5L481.5,44L459.8,102.6L459.8,102.6z
		 M370.7,29.9v99.7h47.2v12.6H355V29.9H370.7z M303.9,27.8c5.1,0,10.4,0.5,16,1.4c5.5,1,10.2,2.2,13.9,3.8l-2.5,12
		c-3.9-1.3-8-2.4-12.4-3.3c-4.4-0.8-8.8-1.3-13.1-1.3c-14.1,0-25.2,3.9-33.1,11.8c-7.9,7.9-11.9,19.2-11.9,33.8s4,25.9,11.9,33.7
		s19,11.8,33.1,11.8c4.3,0,8.7-0.4,13.1-1.3c4.4-0.9,8.5-1.9,12.4-3.3l2.5,12c-3.7,1.6-8.4,2.8-13.9,3.8c-5.5,0.9-10.9,1.4-16,1.4
		c-9.3,0-17.6-1.5-24.9-4.4s-13.4-7-18.4-12.1c-5-5.2-8.8-11.3-11.5-18.4s-4-14.8-4-23.3s1.3-16.2,4-23.3s6.5-13.2,11.5-18.4
		S271.7,35,279,32.1C286.4,29.3,294.7,27.8,303.9,27.8L303.9,27.8z"/>
	<path class="st0" d="M127.8,0h0.5c3.2,4,6.5,7.9,9.7,11.9c-6.6,4.6-8.1,5.7-11.6,8.4c-11.5,9-21.3,21.4-25.8,37.3
		c-5.7,20.4,5.8,40.6,16.7,49.3c8.8,7.1,17.2,14.3,29.4,18.1c31.8,10,53.2-14.1,64.1-32.4c3-5,6.2-10.9,7.8-17
		c4.6,2.3,9.3,4.5,13.9,6.8c-0.2,2.3-1.4,4.4-2.2,6.3c-2.8,6.7-6.1,12.5-9.7,18.2c-13.4,21.1-42.4,47.1-80.1,35.8
		c-7.4-2.2-14.1-5-20-8.7c-16.4-10.2-30-24.2-36.2-44.5c-2.4-7.8-3.8-19.9-1.7-29.3c1.4-6.1,3-11.6,5.3-16.8
		c6.5-14.7,18.8-28.4,30.9-37.5C121.8,4,124.8,2,127.8,0L127.8,0z"/>
</g>
<g>
	<path class="st1" d="M81.4,132.5c9.6-0.1,18.2,2,25.3,4.8c23,8.9,41.4,24.7,50.7,47.1c10.5,25.3,1.1,53.9-15.9,65.6l-15.5-3.3
		c0.4-0.4,0.5-0.5,0.9-0.9c2-1.9,6.3-6.7,8.1-9.2c7.2-10.1,13.2-26.8,8-43.3c-5.9-18.8-19.8-31.4-37.6-38.3c-6.2-2.4-16-5-24.9-3.4
		c-4.6,0.8-8.8,1.5-12.6,3.1c-19.1,8-32.9,28-43.5,44.8c-3.6,5.9-7.2,11.9-10.8,17.9c-4.5-1.7-9-3.5-13.5-5.2
		c3.2-6.9,7.3-13.8,11.1-20.2c12.1-20.3,24.4-40.3,44.8-52.3c4.9-2.9,10.6-4.7,16.9-6.1L81.4,132.5L81.4,132.5z M146.9,59.6
		c3.4,0.3,12.9,3.8,17.6,9.8c1.4,1.7,2.5,4.2,3.2,6.4c3.6,11.4-3.2,20.7-8.8,24.8c-2.9,2.1-4.3,3-9.2,3.7
		c-13.6,1.9-34.5-11.8-27.8-30.2c3-8.2,13.1-13.1,15.8-13.8S143.4,59.2,146.9,59.6z"/>
</g>
</svg>
